<svg width="617" height="341" viewBox="0 0 617 341" fill="none" xmlns="http://www.w3.org/2000/svg">
<g clip-path="url(#clip0_23_220)">
<path d="M292.442 339.384H425.938C431.208 339.384 431.217 329.451 425.938 329.451H292.442C287.172 329.451 287.163 339.384 292.442 339.384Z" fill="#E6E6E6"/>
<path d="M256.399 123.528H123.352C121.946 123.53 120.599 124.209 119.605 125.414C118.611 126.619 118.052 128.253 118.051 129.958V162.013C124.687 162.203 128.995 168.844 130.039 176.907V205.967H130.543C130.623 205.968 130.7 206.007 130.756 206.075C130.813 206.144 130.845 206.237 130.845 206.334V221.797C130.845 221.895 130.813 221.988 130.756 222.056C130.7 222.125 130.623 222.164 130.543 222.164H130.039V315.627C130.039 317.68 130.022 321.427 130.022 321.427H256.399C257.805 321.425 259.152 320.747 260.146 319.541C261.14 318.336 261.699 316.702 261.701 314.997V129.958C261.699 128.253 261.14 126.619 260.146 125.414C259.152 124.209 257.805 123.53 256.399 123.528Z" fill="#A551F8"/>
<path d="M503.597 18.0537V193.458H270.903V116.231C270.9 112.724 269.75 109.362 267.705 106.883C265.661 104.403 262.889 103.009 259.997 103.005H216.357V18.0537H503.597Z" fill="#A551F8"/>
<path d="M517.965 218.185H271.162V216.963H516.957V10.3898C516.954 7.95928 516.157 5.62909 514.74 3.91045C513.323 2.19182 511.402 1.22508 509.398 1.22232H207.544C205.539 1.22508 203.618 2.19182 202.201 3.91045C200.784 5.62909 199.987 7.95928 199.985 10.3898V102.214H198.977V10.3898C198.979 7.6352 199.883 4.99432 201.489 3.04653C203.095 1.09874 205.272 0.00310014 207.544 0H509.398C511.669 0.00309576 513.846 1.09872 515.453 3.04651C517.059 4.9943 517.962 7.6352 517.965 10.3898V218.185Z" fill="#3F3D56"/>
<path d="M494.579 255.466H271.162V254.244H494.579C500.512 254.236 506.2 251.374 510.395 246.286C514.59 241.199 516.95 234.3 516.956 227.105V218.185H271.162V216.963H517.964V227.105C517.957 234.624 515.491 241.833 511.107 247.15C506.723 252.467 500.779 255.458 494.579 255.466V255.466Z" fill="#3F3D56"/>
<path d="M428.273 315.361C415.819 300.856 407.625 281.932 404.992 255.466H313.199C312.265 280.226 304.124 298.796 289.438 315.295L287.887 315.361C303.038 298.707 311.384 280.002 312.213 254.831L312.232 254.244H405.888L405.94 254.784C408.527 281.698 416.891 300.745 429.653 315.263L428.273 315.361Z" fill="#3F3D56"/>
<path d="M259.754 340.646H118.352V339.423H259.754C262.645 339.419 265.417 338.025 267.461 335.546C269.505 333.066 270.655 329.705 270.659 326.198V116.512C270.655 113.005 269.505 109.644 267.461 107.165C265.417 104.685 262.645 103.291 259.754 103.287H118.352C115.461 103.291 112.69 104.685 110.645 107.165C108.601 109.644 107.451 113.005 107.448 116.512V161.763H106.44V116.512C106.444 112.681 107.7 109.009 109.933 106.301C112.166 103.592 115.194 102.069 118.352 102.064H259.754C262.912 102.069 265.94 103.592 268.173 106.301C270.407 109.009 271.663 112.681 271.666 116.512V326.198C271.663 330.029 270.407 333.701 268.173 336.409C265.94 339.118 262.912 340.641 259.754 340.646V340.646Z" fill="#3F3D56"/>
<path d="M189.053 117.528C188.377 117.528 187.717 117.285 187.155 116.83C186.593 116.375 186.155 115.727 185.896 114.97C185.637 114.213 185.57 113.38 185.702 112.576C185.833 111.772 186.159 111.033 186.637 110.454C187.115 109.874 187.723 109.479 188.386 109.319C189.049 109.16 189.736 109.242 190.361 109.555C190.985 109.869 191.519 110.4 191.894 111.082C192.27 111.763 192.47 112.564 192.47 113.384C192.469 114.483 192.109 115.536 191.468 116.313C190.828 117.09 189.959 117.527 189.053 117.528V117.528ZM189.053 110.198C188.533 110.198 188.025 110.385 187.593 110.735C187.161 111.085 186.825 111.583 186.626 112.165C186.427 112.747 186.375 113.388 186.476 114.006C186.578 114.624 186.828 115.192 187.195 115.637C187.563 116.083 188.031 116.386 188.541 116.509C189.05 116.632 189.578 116.569 190.059 116.328C190.539 116.087 190.949 115.678 191.238 115.154C191.526 114.63 191.68 114.014 191.68 113.384C191.68 112.539 191.402 111.729 190.91 111.132C190.417 110.535 189.75 110.199 189.053 110.198V110.198Z" fill="#3F3D56"/>
<path d="M189.053 335.961C188.191 335.961 187.348 335.651 186.631 335.07C185.914 334.489 185.355 333.663 185.025 332.696C184.695 331.73 184.608 330.667 184.777 329.641C184.945 328.615 185.36 327.673 185.97 326.933C186.58 326.194 187.357 325.69 188.202 325.486C189.048 325.282 189.925 325.387 190.722 325.787C191.518 326.187 192.199 326.865 192.678 327.735C193.158 328.604 193.413 329.627 193.413 330.673C193.412 332.075 192.952 333.419 192.135 334.41C191.317 335.402 190.209 335.959 189.053 335.961V335.961ZM189.053 326.607C188.39 326.607 187.742 326.845 187.191 327.292C186.639 327.739 186.21 328.374 185.956 329.117C185.702 329.86 185.636 330.677 185.765 331.466C185.894 332.255 186.214 332.979 186.683 333.548C187.151 334.116 187.749 334.504 188.399 334.66C189.049 334.817 189.723 334.737 190.336 334.429C190.949 334.121 191.472 333.6 191.841 332.931C192.209 332.263 192.405 331.477 192.405 330.673C192.404 329.595 192.051 328.561 191.422 327.799C190.794 327.037 189.942 326.608 189.053 326.607V326.607Z" fill="#3F3D56"/>
<path d="M116.932 341H70.1246C66.6008 340.995 63.2224 339.295 60.7307 336.273C58.239 333.251 56.8374 329.154 56.8335 324.881V177.883C56.8375 173.609 58.2391 169.512 60.7307 166.49C63.2224 163.468 66.6007 161.768 70.1245 161.763H116.932C120.456 161.768 123.834 163.468 126.326 166.49C128.818 169.512 130.219 173.609 130.223 177.883V204.189C130.462 204.309 130.666 204.513 130.809 204.774C130.953 205.035 131.03 205.342 131.03 205.656L131.03 222.772C131.03 223.086 130.953 223.393 130.809 223.654C130.666 223.915 130.462 224.118 130.223 224.239V324.881C130.219 329.154 128.818 333.252 126.326 336.273C123.834 339.295 120.456 340.995 116.932 341V341ZM70.1245 162.986C66.8679 162.99 63.7458 164.561 61.4431 167.354C59.1404 170.147 57.8451 173.933 57.8413 177.883V324.881C57.845 328.83 59.1403 332.617 61.443 335.409C63.7458 338.202 66.8679 339.773 70.1245 339.778H116.932C120.189 339.773 123.311 338.202 125.614 335.41C127.916 332.617 129.212 328.83 129.215 324.881V223.139H129.719C129.8 223.139 129.877 223.1 129.933 223.032C129.99 222.963 130.022 222.87 130.022 222.772L130.022 205.656C130.022 205.558 129.99 205.465 129.933 205.396C129.877 205.327 129.8 205.289 129.719 205.289H129.215V177.883C129.212 173.933 127.916 170.147 125.614 167.354C123.311 164.561 120.189 162.99 116.932 162.986H70.1245Z" fill="#3F3D56"/>
<path d="M117.448 166.409H111.338C111.619 167.245 111.726 168.151 111.651 169.049C111.575 169.946 111.318 170.807 110.903 171.556C110.488 172.305 109.927 172.919 109.271 173.343C108.614 173.767 107.882 173.989 107.138 173.99H80.3222C79.5782 173.989 78.8457 173.768 78.1891 173.343C77.5325 172.919 76.972 172.305 76.557 171.556C76.1421 170.807 75.8853 169.946 75.8094 169.049C75.7335 168.151 75.8407 167.245 76.1217 166.409H70.415C67.8824 166.409 65.4535 167.629 63.6627 169.801C61.8718 171.973 60.8657 174.919 60.8657 177.99V324.773C60.8657 327.844 61.8718 330.79 63.6626 332.962C65.4535 335.134 67.8824 336.354 70.415 336.354H117.448C119.981 336.354 122.41 335.134 124.201 332.962C125.991 330.79 126.998 327.844 126.998 324.773V177.99C126.997 174.919 125.991 171.973 124.201 169.801C122.41 167.629 119.981 166.409 117.448 166.409V166.409Z" fill="#A551F8"/>
<path d="M621.9 340.761H-4.90003C-4.979 340.761 -5.05723 340.743 -5.13027 340.706C-5.2033 340.67 -5.26969 340.616 -5.32562 340.549C-5.38155 340.481 -5.42593 340.401 -5.45621 340.312C-5.48649 340.224 -5.50208 340.129 -5.50208 340.033C-5.50208 339.937 -5.48649 339.843 -5.45621 339.754C-5.42593 339.666 -5.38155 339.585 -5.32562 339.518C-5.26969 339.45 -5.2033 339.397 -5.13027 339.36C-5.05723 339.324 -4.979 339.305 -4.90003 339.305H621.9C621.979 339.305 622.057 339.324 622.13 339.36C622.203 339.397 622.27 339.45 622.326 339.518C622.381 339.585 622.426 339.666 622.456 339.754C622.486 339.843 622.502 339.937 622.502 340.033C622.502 340.129 622.486 340.224 622.456 340.312C622.426 340.401 622.381 340.481 622.326 340.549C622.27 340.616 622.203 340.67 622.13 340.706C622.057 340.743 621.979 340.761 621.9 340.761V340.761Z" fill="#3F3D56"/>
<path d="M428.585 340.418H288.996C287.605 340.419 286.228 340.089 284.943 339.444C283.659 338.8 282.491 337.855 281.507 336.663C280.524 335.471 279.743 334.055 279.211 332.498C278.679 330.94 278.405 329.27 278.405 327.584C278.405 325.897 278.679 324.228 279.211 322.67C279.743 321.112 280.524 319.697 281.507 318.505C282.491 317.313 283.659 316.368 284.943 315.723C286.228 315.079 287.605 314.748 288.996 314.749H428.585C431.39 314.752 434.079 316.105 436.062 318.512C438.045 320.919 439.159 324.182 439.159 327.584C439.159 330.986 438.045 334.249 436.062 336.655C434.079 339.062 431.39 340.415 428.585 340.418ZM288.996 315.972C286.456 315.972 284.021 317.195 282.225 319.373C280.43 321.55 279.421 324.504 279.421 327.584C279.421 330.663 280.43 333.617 282.225 335.795C284.021 337.972 286.456 339.196 288.996 339.196H428.585C431.124 339.196 433.559 337.972 435.355 335.795C437.15 333.617 438.159 330.663 438.159 327.584C438.159 324.504 437.15 321.55 435.355 319.373C433.559 317.195 431.124 315.972 428.585 315.972H288.996Z" fill="#3F3D56"/>
<path d="M529.94 242.698L533.849 252.611L567.237 239.041L561.466 224.41L529.94 242.698Z" fill="#FFB8B8"/>
<path d="M533.799 276.131L521.512 244.976L531.437 239.219L539.34 259.257C540.503 262.206 540.652 265.593 539.755 268.675C538.859 271.757 536.989 274.281 534.558 275.691L533.799 276.131V276.131Z" fill="#2F2E41"/>
<path d="M522.07 331.223L531.125 330.852L531.505 288.103L520.891 288.863L522.07 331.223Z" fill="#FFB8B8"/>
<path d="M548.695 340.922H520.219V327.578H538.534C541.229 327.578 543.813 328.877 545.719 331.188C547.624 333.499 548.695 336.633 548.695 339.901V340.922V340.922Z" fill="#2F2E41"/>
<path d="M522.814 324.801C522.055 324.801 521.318 324.492 520.72 323.924C520.122 323.356 519.699 322.561 519.518 321.667C514.557 297.495 496.099 175.705 512.421 151.785L512.564 151.576L512.78 151.51C513.926 151.158 535.525 143.048 548.199 155.707L548.347 155.855L555.4 180.618L574.415 214.85C575.456 216.724 576.176 218.833 576.533 221.052C576.89 223.27 576.876 225.553 576.492 227.765C576.108 229.977 575.362 232.073 574.298 233.929C573.233 235.784 571.873 237.362 570.297 238.568L545.328 257.678C544.725 258.119 544.024 258.324 543.321 258.264C542.619 258.204 541.948 257.882 541.402 257.342C540.943 256.882 540.59 256.285 540.378 255.611L535.131 239.701C534.818 238.737 534.812 237.665 535.116 236.696C535.42 235.727 536.011 234.931 536.773 234.462L548.471 227.368C548.791 227.154 549.069 226.858 549.285 226.5C549.501 226.142 549.649 225.731 549.72 225.296C549.752 224.902 549.705 224.505 549.583 224.139C549.46 223.772 549.267 223.447 549.018 223.191L535.439 208.993C535.137 208.678 534.765 208.476 534.37 208.412C533.975 208.349 533.573 208.427 533.214 208.636C532.855 208.846 532.554 209.178 532.348 209.593C532.142 210.007 532.041 210.485 532.056 210.968L535.422 318.745C535.453 319.757 535.178 320.748 534.647 321.53C534.117 322.312 533.369 322.832 532.544 322.99L523.36 324.749C523.179 324.784 522.997 324.801 522.814 324.801Z" fill="#2F2E41"/>
<path d="M546.239 160.1C546.162 160.1 546.085 160.097 546.008 160.09L512.143 157.048C511.673 157.006 511.217 156.834 510.811 156.544C510.405 156.255 510.059 155.855 509.801 155.377C509.542 154.899 509.378 154.355 509.321 153.788C509.264 153.221 509.316 152.645 509.472 152.106C511.555 144.822 511.811 136.952 510.206 129.492C508.001 118.945 507.949 99.3344 508.114 88.5835C508.151 86.7609 508.754 85.0225 509.802 83.715C510.849 82.4075 512.265 81.627 513.766 81.5293L513.766 81.5147L514.449 81.5248C519.965 81.6186 530.089 82.096 538.373 84.1864C541.165 84.8872 543.677 86.72 545.496 89.3829C547.314 92.0459 548.331 95.3804 548.379 98.8376C548.566 108.819 548.594 122.329 547.66 130.009C546.872 136.488 548.327 148.93 549.265 155.77C549.338 156.303 549.314 156.849 549.195 157.369C549.077 157.889 548.866 158.372 548.578 158.784C548.29 159.196 547.932 159.527 547.528 159.755C547.124 159.982 546.685 160.1 546.239 160.1H546.239Z" fill="#3F3D56"/>
<path d="M558.329 199.252C557.427 198.728 556.63 197.97 555.996 197.033C555.361 196.095 554.903 195 554.655 193.825C554.408 192.649 554.375 191.422 554.56 190.23C554.746 189.038 555.144 187.91 555.728 186.925L540.087 105.126H551.912L565.716 185.312C567.015 186.611 567.877 188.444 568.137 190.462C568.397 192.479 568.038 194.543 567.127 196.261C566.217 197.979 564.818 199.233 563.197 199.784C561.575 200.335 559.843 200.146 558.329 199.252H558.329Z" fill="#FFB8B8"/>
<path d="M484.254 113.987L502.979 92.5048L510.034 104.483L492.398 123.305L515.526 145.581C515.694 145.567 515.86 145.55 516.03 145.55C517.453 145.548 518.847 146.044 520.044 146.977C521.241 147.911 522.191 149.243 522.78 150.815C523.369 152.386 523.573 154.13 523.366 155.838C523.159 157.545 522.551 159.145 521.615 160.445C520.678 161.744 519.453 162.689 518.085 163.166C516.717 163.644 515.265 163.633 513.902 163.135C512.539 162.638 511.323 161.674 510.4 160.361C509.477 159.047 508.885 157.439 508.696 155.728L508.623 155.817L484.551 130.514C483.58 129.494 482.797 128.239 482.251 126.83C481.705 125.42 481.408 123.888 481.38 122.331C481.352 120.774 481.593 119.227 482.088 117.79C482.583 116.353 483.321 115.058 484.254 113.987V113.987Z" fill="#FFB8B8"/>
<path d="M541.333 110.368C540.754 110.37 540.187 110.172 539.697 109.798C539.207 109.424 538.816 108.888 538.567 108.254C537.075 104.433 536.048 100.371 535.518 96.193C534.706 89.3688 538.618 85.3091 542.597 84.4248C546.468 83.5643 551.182 85.628 552.387 92.1916C552.488 92.7472 552.566 93.3086 552.62 93.8738C553.103 98.8493 553.557 102.719 553.97 105.376C554.051 105.898 554.039 106.436 553.934 106.952C553.83 107.468 553.635 107.951 553.363 108.369C553.092 108.786 552.75 109.128 552.36 109.371C551.97 109.615 551.542 109.754 551.104 109.78L541.49 110.363C541.438 110.366 541.385 110.368 541.333 110.368Z" fill="#3F3D56"/>
<path d="M527.926 74.4836C539.234 74.4836 548.401 63.3655 548.401 49.6506C548.401 35.9358 539.234 24.8177 527.926 24.8177C516.617 24.8177 507.45 35.9358 507.45 49.6506C507.45 63.3655 516.617 74.4836 527.926 74.4836Z" fill="#2F2E41"/>
<path d="M528.049 76.4276C537.307 76.4276 544.813 67.3252 544.813 56.0968C544.813 44.8684 537.307 35.766 528.049 35.766C518.791 35.766 511.286 44.8684 511.286 56.0968C511.286 67.3252 518.791 76.4276 528.049 76.4276Z" fill="#FFB8B8"/>
<path d="M498.296 100.473C497.868 100.001 497.559 99.39 497.407 98.7127C497.254 98.0354 497.264 97.3195 497.434 96.6485C498.463 92.6096 499.969 88.7729 501.905 85.2582C505.108 79.5617 510.254 79.7748 513.68 82.3832C517.013 84.9202 519.339 90.3046 516.571 96.1309C516.336 96.6234 516.08 97.1012 515.806 97.5625C513.389 101.626 511.568 104.851 510.393 107.148C510.161 107.6 509.853 107.986 509.488 108.281C509.124 108.575 508.711 108.772 508.278 108.857C507.846 108.942 507.403 108.914 506.98 108.774C506.557 108.634 506.164 108.386 505.827 108.047L498.414 100.598C498.374 100.558 498.334 100.516 498.296 100.473Z" fill="#3F3D56"/>
<path d="M523.948 27.4727C519.828 24.4911 518.936 17.0661 521.391 12.0664C523.845 7.06667 528.806 4.45861 533.602 4.28671C540.453 4.04117 547.069 8.17796 551.864 14.1164C556.659 20.0549 559.823 27.6565 562.234 35.437C564.646 43.2175 566.376 51.2871 568.752 59.0835C569.972 63.0841 571.473 67.192 574.262 69.79C577.051 72.3879 581.485 72.8566 583.87 69.7213C583.861 74.7384 580.689 79.2992 576.755 80.8526C572.822 82.406 568.372 81.2329 564.924 78.4614C558.941 73.6534 556.053 64.8767 554.402 56.4064C552.751 47.936 551.938 39.0603 548.619 31.3435C547.243 28.1462 545.359 25.1089 542.707 23.4775C540.055 21.8461 536.522 21.9532 534.389 24.4656C533.401 25.6293 532.761 27.2161 531.64 28.1861C530.931 28.7243 530.129 29.0587 529.297 29.1638C528.464 29.2689 527.623 29.1419 526.838 28.7926C525.273 28.0789 523.808 27.0766 522.495 25.8209" fill="#2F2E41"/>
<path d="M510.542 42.3598C512.158 44.9943 514.196 47.2048 516.535 48.8582C518.874 50.5115 521.464 51.5735 524.15 51.9802C526.837 52.3868 529.563 52.1297 532.165 51.2243C534.767 50.3189 537.191 48.7839 539.291 46.7119C540.919 45.1058 542.431 42.8924 542.328 40.3506C542.224 37.747 540.469 35.7021 538.678 34.2621C533.965 30.5052 528.296 28.9255 522.704 29.8107C519.513 30.3308 516.313 31.7412 514.053 34.5225C511.793 37.3038 510.667 41.6295 511.833 45.2692" fill="#2F2E41"/>
</g>
<defs>
<clipPath id="clip0_23_220">
<rect width="628" height="341" fill="white" transform="translate(-5.5)"/>
</clipPath>
</defs>
</svg>
