<svg width="565" height="398" viewBox="0 0 565 398" fill="none" xmlns="http://www.w3.org/2000/svg">
<g clip-path="url(#clip0_21_140)">
<path d="M452.918 286.121L422.207 258.105L407.644 244.98C406.272 243.743 405.219 242.206 404.572 240.494C403.925 238.783 403.702 236.946 403.922 235.134C404.141 233.322 404.797 231.587 405.836 230.071C406.874 228.555 408.266 227.301 409.896 226.412V226.412C411.336 225.626 412.928 225.144 414.571 224.996C416.213 224.848 417.869 225.038 419.431 225.553C420.994 226.068 422.429 226.897 423.644 227.987C424.859 229.076 425.827 230.403 426.486 231.88L431.276 242.62L461.023 272.772L452.918 286.121Z" fill="#FFB9B9"/>
<path d="M456.932 267.949L446.147 285.503L489.927 311.746C528.524 284.636 536.165 275.813 526.708 232.629L519.187 225.279L482.819 282.919L456.932 267.949Z" fill="#6C63FF"/>
<path d="M393.353 219.145C392.921 218.729 392.356 218.47 391.751 218.412C391.147 218.354 390.541 218.5 390.034 218.826L369.76 231.73C369.427 231.942 369.147 232.224 368.94 232.555C368.733 232.887 368.604 233.259 368.563 233.645C368.522 234.032 368.57 234.422 368.704 234.788C368.837 235.154 369.052 235.486 369.334 235.76L420.893 285.924C421.143 286.168 421.441 286.361 421.768 286.491C422.096 286.621 422.447 286.687 422.8 286.683C423.154 286.68 423.503 286.608 423.828 286.471C424.153 286.335 424.447 286.137 424.692 285.888L441.589 268.799C442.077 268.303 442.345 267.639 442.335 266.951C442.325 266.263 442.037 265.606 441.534 265.124L393.353 219.145Z" fill="#3F3D56"/>
<path d="M373.755 233.11L375.853 231.803C375.632 232.187 375.55 232.634 375.622 233.07C375.694 233.505 375.915 233.904 376.249 234.202C376.582 234.499 377.009 234.678 377.46 234.708C377.91 234.738 378.358 234.618 378.73 234.367L392.307 225.246C392.616 225.039 392.859 224.751 393.008 224.416C393.158 224.081 393.208 223.711 393.153 223.349C393.098 222.988 392.94 222.648 392.697 222.37C392.454 222.091 392.136 221.885 391.779 221.775L392.86 221.102C393 221.014 393.167 220.976 393.332 220.995C393.497 221.013 393.651 221.086 393.768 221.201L439.443 265.063C439.511 265.131 439.565 265.211 439.601 265.299C439.637 265.387 439.655 265.481 439.653 265.575C439.651 265.67 439.63 265.764 439.591 265.85C439.552 265.937 439.495 266.015 439.425 266.08L422.837 281.874C422.699 282.001 422.517 282.07 422.328 282.068C422.139 282.065 421.958 281.991 421.824 281.861L373.632 234.213C373.555 234.137 373.496 234.046 373.46 233.946C373.423 233.845 373.411 233.738 373.422 233.632C373.434 233.527 373.47 233.425 373.528 233.334C373.585 233.244 373.663 233.167 373.755 233.11V233.11Z" fill="white"/>
<path d="M426.47 255.378L412.458 268.288L379.131 236.112L396.045 225.353L426.47 255.378Z" fill="#A551F8"/>
<path d="M380.426 244.052C380.517 243.963 380.568 243.843 380.568 243.717C380.568 243.592 380.517 243.471 380.426 243.382L377.512 240.534C377.419 240.448 377.297 240.4 377.169 240.4C377.041 240.4 376.918 240.448 376.826 240.534C376.735 240.623 376.684 240.744 376.684 240.869C376.684 240.995 376.735 241.115 376.826 241.204L379.74 244.052C379.833 244.139 379.956 244.187 380.083 244.187C380.211 244.187 380.334 244.139 380.426 244.052Z" fill="#E6E6E6"/>
<path d="M385.336 248.18L382.422 245.332C382.377 245.288 382.323 245.253 382.264 245.229C382.205 245.205 382.142 245.193 382.079 245.193C382.015 245.193 381.952 245.205 381.893 245.229C381.834 245.253 381.781 245.288 381.736 245.332C381.691 245.376 381.655 245.428 381.631 245.486C381.606 245.543 381.594 245.605 381.594 245.667C381.594 245.729 381.606 245.791 381.631 245.848C381.655 245.906 381.691 245.958 381.736 246.002L384.65 248.85C384.741 248.939 384.865 248.989 384.993 248.989C385.122 248.989 385.245 248.939 385.336 248.85C385.427 248.761 385.478 248.641 385.478 248.515C385.478 248.389 385.427 248.269 385.336 248.18V248.18Z" fill="#E6E6E6"/>
<path d="M426.147 269.658C427.954 269.658 429.42 268.226 429.42 266.459C429.42 264.693 427.954 263.261 426.147 263.261C424.339 263.261 422.874 264.693 422.874 266.459C422.874 268.226 424.339 269.658 426.147 269.658Z" fill="#6C63FF"/>
<path d="M564.681 379.534H310.843V377.814H565L564.681 379.534Z" fill="#3F3D56"/>
<path d="M535.656 378.411V130.364H537.416V378.722L535.656 378.411Z" fill="#3F3D56"/>
<path d="M215.815 371.052L199.188 375.341C196.825 379.898 192.79 383.416 187.887 385.191C182.985 386.966 177.578 386.867 172.747 384.913L172.384 384.767C170.181 383.847 168.125 382.621 166.282 381.126C159.298 375.594 147.663 372.739 132.233 372.067C131.287 371.776 130.467 371.187 129.901 370.391C129.336 369.595 129.057 368.637 129.109 367.67V367.67C129.164 366.65 129.583 365.681 130.293 364.931C131.003 364.182 131.959 363.699 132.996 363.567L216.193 352.963L215.815 371.052Z" fill="#E6E6E6"/>
<path d="M431.524 385.449C388.024 378.632 348.396 367.598 315.17 349.59L212.037 374.323L212.415 352.225L293.029 324.595C306.629 319.933 321.082 318.128 335.445 319.298L431.524 336.72L431.524 385.449Z" fill="#2F2E41"/>
<path d="M265.684 394.317C265.356 393.249 265.39 392.105 265.782 391.058C266.174 390.01 266.902 389.115 267.858 388.505L306.859 368.468L316.303 344.472L332.547 354.44L328.014 372.159L329.086 379.492C329.422 381.791 329.249 384.135 328.577 386.364C327.906 388.592 326.752 390.654 325.195 392.409C323.637 394.164 321.712 395.572 319.549 396.536C317.386 397.501 315.036 398 312.659 398H270.75C269.612 398 268.505 397.642 267.592 396.978C266.68 396.315 266.011 395.382 265.684 394.317V394.317Z" fill="#E6E6E6"/>
<path d="M484.035 371.79C436.936 429.012 404.529 366.686 372.591 300.543L334.058 361.823L310.636 345.58L351.024 258.754C352.021 256.611 353.524 254.73 355.41 253.266C357.296 251.802 359.511 250.797 361.873 250.333C364.235 249.869 366.675 249.959 368.994 250.597C371.312 251.235 373.443 252.402 375.21 254.002L431.524 315.309L442.102 314.571L484.035 371.79Z" fill="#2F2E41"/>
<path d="M486.679 208.254C502.118 208.254 514.634 196.023 514.634 180.936C514.634 165.849 502.118 153.619 486.679 153.619C471.24 153.619 458.724 165.849 458.724 180.936C458.724 196.023 471.24 208.254 486.679 208.254Z" fill="#FFB9B9"/>
<path d="M522.19 229.665L491.212 236.31C488.239 223.844 483.934 211.719 478.368 200.132L507.079 189.796C510.607 203.586 515.675 216.956 522.19 229.665Z" fill="#FFB9B9"/>
<path d="M486.679 378.804L431.524 315.309L453.984 278.829C456.348 262.419 465.021 249.521 478.368 239.223L487.435 224.497L514.634 213.422C524.185 220.845 530.974 231.13 533.957 242.693C536.94 254.255 535.952 266.456 531.145 277.416L486.679 378.804Z" fill="#A551F8"/>
<path d="M439.08 308.664L405.836 283.562L390.086 271.817C388.602 270.71 387.407 269.275 386.6 267.63C385.793 265.985 385.396 264.176 385.443 262.352C385.489 260.528 385.977 258.741 386.866 257.137C387.756 255.533 389.022 254.158 390.561 253.124C391.92 252.211 393.459 251.586 395.08 251.29C396.701 250.993 398.368 251.032 399.973 251.402C401.578 251.773 403.085 252.468 404.399 253.443C405.712 254.417 406.803 255.65 407.599 257.061L413.391 267.319L445.88 294.636L439.08 308.664Z" fill="#FFB9B9"/>
<path d="M441.346 290.206L432.28 308.664L478.368 330.814C514.217 300.312 534.205 271.064 520.679 228.926L503.301 233.356L468.546 302.758L441.346 290.206Z" fill="#FFEB60"/>
<path d="M522.971 149.453C529.118 149.453 534.102 144.584 534.102 138.577C534.102 132.57 529.118 127.7 522.971 127.7C516.824 127.7 511.841 132.57 511.841 138.577C511.841 144.584 516.824 149.453 522.971 149.453Z" fill="#2F2E41"/>
<path d="M511.502 135.914C511.685 133.154 512.938 130.567 515.005 128.678C517.072 126.789 519.798 125.742 522.627 125.748C522.398 125.72 522.17 125.685 521.935 125.67C518.99 125.485 516.089 126.451 513.872 128.356C511.655 130.261 510.303 132.948 510.114 135.827C509.924 138.705 510.913 141.54 512.862 143.706C514.811 145.873 517.561 147.194 520.507 147.379C520.742 147.393 520.972 147.388 521.204 147.388C518.396 147.041 515.83 145.66 514.027 143.528C512.225 141.397 511.322 138.674 511.502 135.914V135.914Z" fill="#2F2E41"/>
<path d="M511.439 140.559C501.513 132.512 473.041 142.739 471.204 148.149C457.78 149.936 447.617 157.59 447.617 171.197V171.197C455.598 174.392 464.674 173.999 474.486 171.197C490.126 183.653 491.199 199.311 481.687 217.295L493.389 217.523L507.894 196.807L508.588 217.82L535.412 217.295V187.181C535.499 177.169 533.14 167.28 528.533 158.337C524.353 150.401 517.866 145.768 511.439 140.559Z" fill="#2F2E41"/>
<path d="M486.461 193.762C489.401 193.762 491.784 190.502 491.784 186.481C491.784 182.459 489.401 179.199 486.461 179.199C483.521 179.199 481.138 182.459 481.138 186.481C481.138 190.502 483.521 193.762 486.461 193.762Z" fill="#FFB8B8"/>
<path d="M140.561 69.7178H138.889V74.6177H140.561V69.7178Z" fill="#E6E6E6"/>
<path d="M234.996 69.7178H233.325V74.6177H234.996V69.7178Z" fill="#E6E6E6"/>
<path d="M318.742 139.621H265.256C261.635 139.632 258.166 141.042 255.606 143.544C253.046 146.045 251.603 149.435 251.592 152.973V188.579C251.603 192.117 253.046 195.507 255.606 198.009C258.166 200.51 261.635 201.92 265.256 201.931H318.742C322.362 201.92 325.831 200.51 328.391 198.009C330.951 195.507 332.394 192.117 332.406 188.579V152.973C332.394 149.435 330.951 146.045 328.391 143.544C325.831 141.042 322.362 139.632 318.742 139.621V139.621ZM321.015 179.686C321.004 183.224 319.561 186.614 317 189.115C314.44 191.617 310.971 193.027 307.351 193.038H276.613C272.993 193.027 269.524 191.617 266.964 189.115C264.403 186.614 262.96 183.224 262.949 179.686V161.883C262.96 158.345 264.403 154.955 266.964 152.453C269.524 149.951 272.993 148.541 276.613 148.531H307.359C310.977 148.543 314.442 149.953 317 152.453C319.559 154.953 321.001 158.339 321.015 161.875V179.686Z" fill="#A551F8"/>
<path d="M127.472 152.973V188.579C127.483 192.117 128.926 195.507 131.486 198.009C134.046 200.51 137.515 201.92 141.136 201.931H194.621C198.242 201.92 201.711 200.51 204.271 198.009C206.831 195.507 208.274 192.117 208.285 188.579V152.973C208.274 149.435 206.831 146.045 204.271 143.544C201.711 141.042 198.242 139.632 194.621 139.621H141.136C137.515 139.632 134.046 141.042 131.486 143.544C128.926 146.045 127.483 149.435 127.472 152.973ZM138.862 161.875C138.873 158.337 140.317 154.947 142.877 152.445C145.437 149.943 148.906 148.533 152.526 148.522H183.272C186.893 148.533 190.362 149.943 192.922 152.445C195.482 154.947 196.925 158.337 196.936 161.875V179.677C196.925 183.215 195.482 186.605 192.922 189.107C190.362 191.609 186.893 193.019 183.272 193.03H152.518C148.9 193.017 145.435 191.607 142.877 189.107C140.319 186.607 138.876 183.221 138.862 179.686V161.875Z" fill="#A551F8"/>
<path d="M248.988 176.301C243.36 172.721 236.79 170.815 230.076 170.815C223.361 170.815 216.791 172.721 211.163 176.301C208.004 178.277 203.701 178.694 201.135 176.391L197.917 173.246C195.41 170.976 196.823 165.48 201.803 162.312C210.209 156.971 220.02 154.129 230.046 154.129C240.073 154.129 249.884 156.971 258.289 162.312C263.304 165.48 264.708 170.984 262.175 173.246L258.991 176.366C256.459 178.685 252.155 178.277 248.988 176.301Z" fill="#A551F8"/>
<path d="M291.999 184.534C300.173 184.534 306.799 178.059 306.799 170.071C306.799 162.083 300.173 155.608 291.999 155.608C283.825 155.608 277.198 162.083 277.198 170.071C277.198 178.059 283.825 184.534 291.999 184.534Z" fill="#383F4D"/>
<path d="M167.879 183.054C176.053 183.054 182.679 176.579 182.679 168.591C182.679 160.604 176.053 154.129 167.879 154.129C159.705 154.129 153.078 160.604 153.078 168.591C153.078 176.579 159.705 183.054 167.879 183.054Z" fill="#383F4D"/>
<path d="M296.553 170.063C299.069 170.063 301.108 168.07 301.108 165.612C301.108 163.154 299.069 161.161 296.553 161.161C294.038 161.161 291.999 163.154 291.999 165.612C291.999 168.07 294.038 170.063 296.553 170.063Z" fill="white"/>
<path d="M172.433 168.583C174.948 168.583 176.988 166.591 176.988 164.132C176.988 161.674 174.948 159.682 172.433 159.682C169.918 159.682 167.878 161.674 167.878 164.132C167.878 166.591 169.918 168.583 172.433 168.583Z" fill="white"/>
<path d="M194.43 218.399C199.642 230.669 210.672 245.629 226.068 247.793C238.757 249.577 254.412 242.669 272.219 218.399" stroke="#A551F8" stroke-width="5"/>
</g>
<defs>
<clipPath id="clip0_21_140">
<rect width="669" height="516" fill="white" transform="translate(-104 -118)"/>
</clipPath>
</defs>
</svg>
