<svg width="333" height="131" viewBox="0 0 333 131" fill="none" xmlns="http://www.w3.org/2000/svg">
<path d="M63.5124 0.484131C-1.88765 10.4841 -3.90431 62.3175 3.26235 86.9841C10.4624 91.1841 13.929 77.4008 14.7624 69.9841C13.9624 42.7841 26.429 34.1508 32.7624 33.2341C48.3624 29.8341 52.929 61.9841 53.2624 78.4841C58.2624 98.0841 63.3457 67.9841 65.2624 50.4841C66.6623 37.2841 76.179 33.4841 80.7624 33.2341C90.3624 31.8341 96.0957 47.3175 97.7624 55.2341C99.7624 80.4341 103.262 85.5675 104.762 84.9841C108.362 85.7841 109.929 70.3175 110.262 62.4841C109.862 49.6841 117.929 38.8175 122.012 34.9841C112.212 9.78413 78.929 1.48413 63.5124 0.484131Z" fill="#A551F8"/>
<ellipse cx="158.701" cy="28.75" rx="7.25" ry="6.75" fill="#A451F7"/>
<ellipse cx="247.574" cy="28.5" rx="7.25" ry="6.75" fill="#A451F7"/>
<rect x="151.451" y="44" width="12.8117" height="72.5" rx="6.40585" fill="#A551F8"/>
<rect x="182.512" y="14.5" width="12.5" height="102" rx="6.25" fill="#A451F7"/>
<rect x="212.262" y="14.5" width="12.5" height="102" rx="6.25" fill="#A451F7"/>
<rect x="242.262" y="44" width="12.562" height="72.5" rx="6.281" fill="#A451F7"/>
<path d="M328.319 86.5642H282.319C282.319 89.9642 284.486 93.9809 285.569 95.5642C294.769 107.564 307.903 104.898 313.319 102.064C323.719 95.6642 327.653 100.398 328.319 103.564C320.919 115.364 301.736 114.814 293.069 113.064C275.469 109.264 271.069 90.9809 271.069 82.3142C268.669 70.5142 278.736 59.2309 284.069 55.0642C292.869 47.2642 307.236 49.3142 313.319 51.3142C326.319 52.5142 331.403 72.4809 332.319 82.3142C331.719 85.3142 329.403 86.3976 328.319 86.5642Z" fill="#A451F7"/>
<path d="M321.012 77.0642H282.012C283.412 63.0642 295.929 59.5642 302.012 59.5642C314.412 58.3642 319.846 70.7308 321.012 77.0642Z" fill="white"/>
<path d="M26.7623 74.4841C26.3623 90.4841 15.5957 96.8174 10.2623 97.9841H8.26234C14.8623 111.584 29.5123 120.984 36.0123 123.984C74.8123 141.584 105.012 119.484 115.262 106.234C124.062 99.4341 128.596 77.7341 129.762 67.7341C130.562 48.5341 127.429 48.2341 125.762 50.4841C124.962 70.0841 118.429 86.1508 115.262 91.7341C100.462 109.134 90.2623 87.4841 87.0123 74.4841C86.2123 51.2841 82.3457 47.8174 80.5123 48.9841C77.7123 48.9841 75.8457 61.4841 75.2623 67.7341C73.6623 93.1341 61.5957 98.4841 55.7623 97.9841C43.3623 97.9841 39.2623 76.8174 38.7623 66.2341C37.9623 52.0341 34.0957 48.8174 32.2623 48.9841C29.4623 49.3841 27.429 66.1508 26.7623 74.4841Z" fill="#A551F8"/>
</svg>
