<svg width="557" height="296" viewBox="0 0 557 296" fill="none" xmlns="http://www.w3.org/2000/svg">
<g clip-path="url(#clip0_21_61)">
<path d="M51.0693 281.794L50.3034 281.472C50.1351 281.4 33.3843 274.182 25.5374 257.815C17.6903 241.447 21.5327 221.74 21.5724 221.543L21.7532 220.646L22.5188 220.969C22.6871 221.04 39.4376 228.258 47.2848 244.625C55.1319 260.993 51.2895 280.7 51.2498 280.897L51.0693 281.794ZM26.794 257.053C33.4282 270.891 46.6652 277.985 50.0191 279.604C50.6567 275.561 52.6565 259.212 46.0282 245.387C39.4007 231.564 26.1584 224.459 22.8031 222.836C22.1651 226.881 20.1661 243.229 26.794 257.053Z" fill="#DBB4FF"/>
<path d="M31.5342 252.073C45.636 261.616 51.067 280.569 51.067 280.569C51.067 280.569 33.6346 284.052 19.5328 274.51C5.43103 264.967 0 246.014 0 246.014C0 246.014 17.4325 242.531 31.5342 252.073Z" fill="#A451F7"/>
<path d="M482.838 3.64532H325.588V0H254.284V3.64532H96.385C94.9881 3.64532 93.605 3.95477 92.3145 4.556C91.0239 5.15722 89.8513 6.03845 88.8636 7.14936C87.8759 8.26028 87.0924 9.57913 86.5579 11.0306C86.0233 12.4821 85.7482 14.0378 85.7482 15.6089V257.79C85.7482 260.963 86.8688 264.006 88.8636 266.25C90.8584 268.493 93.5639 269.754 96.385 269.754H482.838C484.235 269.754 485.618 269.444 486.909 268.843C488.199 268.242 489.372 267.361 490.36 266.25C491.347 265.139 492.131 263.82 492.665 262.368C493.2 260.917 493.475 259.361 493.475 257.79V15.6089C493.475 14.0378 493.2 12.4821 492.665 11.0306C492.131 9.57911 491.347 8.26027 490.36 7.14935C489.372 6.03844 488.199 5.15721 486.909 4.55599C485.618 3.95476 484.235 3.64532 482.838 3.64532V3.64532Z" fill="#3F3D56"/>
<path d="M479.214 24.7882H100.009V265.379H479.214V24.7882Z" fill="#A551F8"/>
<path d="M289.287 18.2266C291.435 18.2266 293.177 16.2681 293.177 13.8522C293.177 11.4363 291.435 9.47784 289.287 9.47784C287.139 9.47784 285.398 11.4363 285.398 13.8522C285.398 16.2681 287.139 18.2266 289.287 18.2266Z" fill="#6C63FF"/>
<path d="M457.445 55.4086H439.47V35.1913H457.445V55.4086ZM440.251 54.5296H456.664V36.0703H440.251V54.5296Z" fill="#FFEB60"/>
<path d="M504.122 261.005H467.114V258.006C467.114 257.928 467.101 257.851 467.074 257.778C467.048 257.706 467.009 257.641 466.96 257.585C466.91 257.53 466.852 257.486 466.788 257.457C466.724 257.427 466.655 257.411 466.586 257.411H453.897C453.828 257.411 453.759 257.427 453.695 257.457C453.631 257.486 453.572 257.53 453.523 257.585C453.474 257.641 453.435 257.706 453.409 257.778C453.382 257.851 453.369 257.928 453.369 258.006V261.005H445.438V258.006C445.438 257.928 445.425 257.851 445.398 257.778C445.371 257.706 445.333 257.641 445.283 257.585C445.234 257.53 445.176 257.486 445.112 257.457C445.048 257.427 444.979 257.411 444.91 257.411H432.221C432.152 257.411 432.083 257.427 432.019 257.457C431.955 257.486 431.896 257.53 431.847 257.585C431.798 257.641 431.759 257.706 431.733 257.778C431.706 257.851 431.692 257.928 431.692 258.006V261.005H423.762V258.006C423.762 257.928 423.748 257.851 423.722 257.778C423.695 257.706 423.656 257.641 423.607 257.585C423.558 257.53 423.5 257.486 423.436 257.457C423.372 257.427 423.303 257.411 423.233 257.411H410.545C410.476 257.411 410.407 257.427 410.343 257.457C410.279 257.486 410.22 257.53 410.171 257.585C410.122 257.641 410.083 257.706 410.057 257.778C410.03 257.851 410.016 257.928 410.016 258.006V261.005H402.086V258.006C402.086 257.928 402.072 257.851 402.046 257.778C402.019 257.706 401.98 257.641 401.931 257.585C401.882 257.53 401.824 257.486 401.76 257.457C401.696 257.427 401.627 257.411 401.557 257.411H388.869C388.799 257.411 388.731 257.427 388.667 257.457C388.602 257.486 388.544 257.53 388.495 257.585C388.446 257.641 388.407 257.706 388.38 257.778C388.354 257.851 388.34 257.928 388.34 258.006V261.005H380.41V258.006C380.41 257.928 380.396 257.851 380.37 257.778C380.343 257.706 380.304 257.641 380.255 257.585C380.206 257.53 380.148 257.486 380.084 257.457C380.019 257.427 379.951 257.411 379.881 257.411H367.193C367.123 257.411 367.055 257.427 366.99 257.457C366.926 257.486 366.868 257.53 366.819 257.585C366.77 257.641 366.731 257.706 366.704 257.778C366.678 257.851 366.664 257.928 366.664 258.006V261.005H358.734V258.006C358.734 257.928 358.72 257.851 358.694 257.778C358.667 257.706 358.628 257.641 358.579 257.585C358.53 257.53 358.472 257.486 358.407 257.457C358.343 257.427 358.275 257.411 358.205 257.411H345.517C345.447 257.411 345.378 257.427 345.314 257.457C345.25 257.486 345.192 257.53 345.143 257.585C345.094 257.641 345.055 257.706 345.028 257.778C345.002 257.851 344.988 257.928 344.988 258.006V261.005H337.058V258.006C337.058 257.928 337.044 257.851 337.017 257.778C336.991 257.706 336.952 257.641 336.903 257.585C336.854 257.53 336.795 257.486 336.731 257.457C336.667 257.427 336.598 257.411 336.529 257.411H237.136C237.067 257.411 236.998 257.427 236.934 257.457C236.87 257.486 236.811 257.53 236.762 257.585C236.713 257.641 236.674 257.706 236.648 257.778C236.621 257.851 236.607 257.928 236.607 258.006V261.005H228.677V258.006C228.677 257.928 228.663 257.851 228.637 257.778C228.61 257.706 228.571 257.641 228.522 257.585C228.473 257.53 228.415 257.486 228.351 257.457C228.287 257.427 228.218 257.411 228.148 257.411H215.46C215.391 257.411 215.322 257.427 215.258 257.457C215.194 257.486 215.135 257.53 215.086 257.585C215.037 257.641 214.998 257.706 214.972 257.778C214.945 257.851 214.931 257.928 214.931 258.006V261.005H207.001V258.006C207.001 257.928 206.987 257.851 206.961 257.778C206.934 257.706 206.895 257.641 206.846 257.585C206.797 257.53 206.739 257.486 206.675 257.457C206.61 257.427 206.542 257.411 206.472 257.411H193.784C193.714 257.411 193.646 257.427 193.582 257.457C193.517 257.486 193.459 257.53 193.41 257.585C193.361 257.641 193.322 257.706 193.295 257.778C193.269 257.851 193.255 257.928 193.255 258.006V261.005H185.325V258.006C185.325 257.928 185.311 257.851 185.285 257.778C185.258 257.706 185.219 257.641 185.17 257.585C185.121 257.53 185.063 257.486 184.999 257.457C184.934 257.427 184.866 257.411 184.796 257.411H172.108C172.038 257.411 171.97 257.427 171.905 257.457C171.841 257.486 171.783 257.53 171.734 257.585C171.685 257.641 171.646 257.706 171.619 257.778C171.593 257.851 171.579 257.928 171.579 258.006V261.005H163.649V258.006C163.649 257.928 163.635 257.851 163.609 257.778C163.582 257.706 163.543 257.641 163.494 257.585C163.445 257.53 163.387 257.486 163.322 257.457C163.258 257.427 163.19 257.411 163.12 257.411H150.432C150.362 257.411 150.293 257.427 150.229 257.457C150.165 257.486 150.107 257.53 150.058 257.585C150.009 257.641 149.97 257.706 149.943 257.778C149.917 257.851 149.903 257.928 149.903 258.006V261.005H141.973V258.006C141.973 257.928 141.959 257.851 141.932 257.778C141.906 257.706 141.867 257.641 141.818 257.585C141.769 257.53 141.71 257.486 141.646 257.457C141.582 257.427 141.513 257.411 141.444 257.411H128.756C128.686 257.411 128.617 257.427 128.553 257.457C128.489 257.486 128.431 257.53 128.382 257.585C128.333 257.641 128.294 257.706 128.267 257.778C128.241 257.851 128.227 257.928 128.227 258.006V261.005H120.297V258.006C120.297 257.928 120.283 257.851 120.256 257.778C120.23 257.706 120.191 257.641 120.142 257.585C120.093 257.53 120.034 257.486 119.97 257.457C119.906 257.427 119.837 257.411 119.768 257.411H107.079C107.01 257.411 106.941 257.427 106.877 257.457C106.813 257.486 106.755 257.53 106.706 257.585C106.656 257.641 106.618 257.706 106.591 257.778C106.564 257.851 106.551 257.928 106.551 258.006V261.005H82.2312C78.866 261.005 75.6386 262.508 73.2591 265.185C70.8795 267.861 69.5427 271.491 69.5427 275.276V281.729C69.5427 285.514 70.8796 289.144 73.2591 291.82C75.6386 294.496 78.866 296 82.2312 296H504.122C507.488 296 510.715 294.496 513.094 291.82C515.474 289.144 516.811 285.514 516.811 281.729V275.276C516.811 271.491 515.474 267.861 513.094 265.185C510.715 262.508 507.488 261.005 504.122 261.005V261.005Z" fill="#3F3D56"/>
<path d="M569 281.359H17.3536V283.253H569V281.359Z" fill="#3F3D56"/>
<path d="M455.773 158.85H333.681V80.6727H455.773V158.85ZM334.89 157.49H454.564V82.0323H334.89V157.49Z" fill="#3F3D56"/>
<path d="M232.139 174.486H123.344V98.3476H232.139V174.486ZM124.553 173.126H230.93V99.7072H124.553V173.126Z" fill="#3F3D56"/>
<path d="M174.172 145.254L174.068 143.734C173.756 140.577 174.692 137.128 177.291 133.62C179.63 130.521 180.929 128.242 180.929 125.611C180.929 122.629 179.266 120.642 175.991 120.583C174.118 120.575 172.288 121.207 170.741 122.396L169.494 118.712C171.209 117.309 174.172 116.374 176.927 116.374C182.905 116.374 185.607 120.525 185.607 124.967C185.607 128.943 183.632 131.808 181.137 135.14C178.85 138.18 178.019 140.752 178.174 143.734L178.226 145.254L174.172 145.254ZM173.029 153.439C173.001 152.962 173.061 152.484 173.206 152.034C173.35 151.585 173.577 151.174 173.87 150.828C174.163 150.482 174.516 150.208 174.908 150.023C175.3 149.839 175.722 149.748 176.147 149.756C177.967 149.756 179.214 151.275 179.214 153.439C179.231 153.908 179.164 154.376 179.016 154.815C178.869 155.253 178.644 155.654 178.355 155.993C178.066 156.331 177.719 156.601 177.335 156.785C176.952 156.969 176.539 157.064 176.121 157.064C175.704 157.064 175.291 156.969 174.907 156.785C174.524 156.601 174.177 156.331 173.888 155.993C173.599 155.654 173.374 155.253 173.226 154.815C173.079 154.376 173.011 153.908 173.029 153.439V153.439Z" fill="#D0CDE1"/>
<path d="M391.158 128.259L391.053 126.739C390.742 123.582 391.677 120.132 394.276 116.625C396.615 113.526 397.915 111.247 397.915 108.616C397.915 105.634 396.251 103.647 392.977 103.588C391.104 103.58 389.273 104.212 387.727 105.401L386.479 101.717C388.195 100.314 391.158 99.3785 393.912 99.3785C399.89 99.3785 402.593 103.53 402.593 107.972C402.593 111.948 400.618 114.813 398.123 118.145C395.836 121.185 395.004 123.757 395.16 126.739L395.212 128.259L391.158 128.259ZM390.014 136.444C389.986 135.967 390.046 135.488 390.191 135.039C390.336 134.59 390.562 134.179 390.855 133.833C391.148 133.487 391.502 133.213 391.894 133.028C392.286 132.844 392.708 132.752 393.133 132.761C394.952 132.761 396.2 134.28 396.2 136.444C396.217 136.913 396.149 137.381 396.002 137.819C395.854 138.258 395.629 138.659 395.34 138.998C395.051 139.336 394.704 139.606 394.321 139.79C393.937 139.974 393.524 140.069 393.107 140.069C392.69 140.069 392.277 139.974 391.893 139.79C391.509 139.606 391.162 139.336 390.873 138.998C390.584 138.659 390.359 138.258 390.212 137.819C390.064 137.381 389.997 136.913 390.014 136.444V136.444Z" fill="#D0CDE1"/>
<path d="M291.748 235.987C320.553 235.987 343.904 209.724 343.904 177.326C343.904 144.928 320.553 118.664 291.748 118.664C262.942 118.664 239.591 144.928 239.591 177.326C239.591 209.724 262.942 235.987 291.748 235.987Z" fill="#2F2E41"/>
<path d="M271.604 257.658L256.011 254.483L261.069 217.866L276.66 221.041L271.604 257.658Z" fill="#2F2E41"/>
<path d="M307.844 227.39L292.252 224.215L287.195 255.634L302.787 258.809L307.844 227.39Z" fill="#2F2E41"/>
<path d="M313.208 260.52C313.749 257.505 308.393 253.745 301.244 252.122C294.096 250.499 287.863 251.628 287.322 254.643C286.78 257.658 292.137 261.418 299.285 263.041C306.433 264.664 312.667 263.535 313.208 260.52Z" fill="#2F2E41"/>
<path d="M280.733 259.573C281.092 256.524 275.523 253.179 268.294 252.102C261.064 251.025 254.913 252.624 254.554 255.673C254.194 258.722 259.764 262.067 266.993 263.144C274.222 264.221 280.374 262.623 280.733 259.573Z" fill="#2F2E41"/>
<path d="M295.399 183.026C305.244 183.026 313.224 174.049 313.224 162.977C313.224 151.904 305.244 142.928 295.399 142.928C285.554 142.928 277.573 151.904 277.573 162.977C277.573 174.049 285.554 183.026 295.399 183.026Z" fill="white"/>
<path d="M302.725 162.473C306.007 162.473 308.667 159.481 308.667 155.79C308.667 152.099 306.007 149.107 302.725 149.107C299.444 149.107 296.783 152.099 296.783 155.79C296.783 159.481 299.444 162.473 302.725 162.473Z" fill="#3F3D56"/>
<path d="M250.604 113.508C249.819 91.7906 266.461 73.3958 287.774 72.4221C309.087 71.4484 327 88.2645 327.784 109.982C328.569 131.699 313.753 136.634 292.441 137.607C271.128 138.581 251.388 135.226 250.604 113.508Z" fill="white"/>
<path d="M341.736 175.614C355.774 171.994 366.336 165.042 365.326 160.085C364.316 155.129 352.116 154.044 338.078 157.663C324.039 161.283 313.478 168.235 314.488 173.192C315.498 178.149 327.697 179.233 341.736 175.614Z" fill="#2F2E41"/>
<path d="M239.355 194.763C253.393 191.144 263.955 184.192 262.945 179.235C261.935 174.278 249.735 173.194 235.697 176.813C221.658 180.432 211.097 187.384 212.107 192.341C213.117 197.298 225.316 198.382 239.355 194.763Z" fill="#2F2E41"/>
<path d="M277.423 200.444C277.145 202.171 277.172 203.943 277.503 205.658C277.834 207.373 278.462 208.999 279.351 210.441C280.24 211.883 281.373 213.115 282.686 214.064C283.998 215.014 285.464 215.664 287 215.977C288.535 216.289 290.111 216.259 291.636 215.887C293.161 215.515 294.606 214.808 295.888 213.808C297.171 212.808 298.265 211.533 299.11 210.057C299.954 208.581 300.532 206.933 300.81 205.205C301.979 197.942 296.986 195.371 290.528 194.056C284.069 192.741 278.592 193.18 277.423 200.444Z" fill="white"/>
<path d="M179.162 8.92056H93.4033V100.672H179.162V8.92056Z" fill="#D0CDE1"/>
<path d="M169.417 19.8814H103.149V76.8776H169.417V19.8814Z" fill="white"/>
<path d="M139.128 83.6017H103.083V85.7355H139.128V83.6017Z" fill="#F2F2F2"/>
<path d="M139.128 90.003H103.083V92.1367H139.128V90.003Z" fill="#F2F2F2"/>
<path d="M114.94 56.9299C119.131 56.9299 122.529 53.1086 122.529 48.3949C122.529 43.6811 119.131 39.8599 114.94 39.8599C110.749 39.8599 107.352 43.6811 107.352 48.3949C107.352 53.1086 110.749 56.9299 114.94 56.9299Z" fill="#3F3D56"/>
<path d="M136.283 56.9299C140.474 56.9299 143.871 53.1086 143.871 48.3949C143.871 43.6811 140.474 39.8599 136.283 39.8599C132.092 39.8599 128.694 43.6811 128.694 48.3949C128.694 53.1086 132.092 56.9299 136.283 56.9299Z" fill="#A451F7"/>
<path d="M157.625 56.9299C161.816 56.9299 165.214 53.1086 165.214 48.3949C165.214 43.6811 161.816 39.8599 157.625 39.8599C153.434 39.8599 150.037 43.6811 150.037 48.3949C150.037 53.1086 153.434 56.9299 157.625 56.9299Z" fill="#DBB4FF"/>
<path d="M136.283 18.5224C138.378 18.5224 140.077 16.6118 140.077 14.2549C140.077 11.8981 138.378 9.98743 136.283 9.98743C134.187 9.98743 132.489 11.8981 132.489 14.2549C132.489 16.6118 134.187 18.5224 136.283 18.5224Z" fill="#3F3D56"/>
<path d="M219.953 186.578H134.194V278.329H219.953V186.578Z" fill="#D0CDE1"/>
<path d="M210.207 197.539H143.939V254.535H210.207V197.539Z" fill="white"/>
<path d="M181.753 206.905H158.521V233.035H181.753V206.905Z" fill="#A451F7"/>
<path d="M167.415 213.44V245.168H195.625V213.44H167.415ZM194.401 243.792H168.638V214.816H194.401V243.792Z" fill="#3F3D56"/>
<path d="M179.919 260.192H143.874V262.326H179.919V260.192Z" fill="#F2F2F2"/>
<path d="M177.073 196.18C179.169 196.18 180.868 194.269 180.868 191.912C180.868 189.555 179.169 187.645 177.073 187.645C174.978 187.645 173.279 189.555 173.279 191.912C173.279 194.269 174.978 196.18 177.073 196.18Z" fill="#3F3D56"/>
<path d="M443.233 159.11H357.474V250.861H443.233V159.11Z" fill="#D0CDE1"/>
<path d="M433.487 170.071H367.219V227.067H433.487V170.071Z" fill="white"/>
<path d="M407.481 214.69H393.225V219.442H407.481V214.69Z" fill="#3F3D56"/>
<path d="M424.716 177.696H375.99V179.732H424.716V177.696Z" fill="#3F3D56"/>
<path d="M424.716 184.144H375.99V186.181H424.716V184.144Z" fill="#3F3D56"/>
<path d="M424.716 190.593H375.99V192.629H424.716V190.593Z" fill="#3F3D56"/>
<path d="M424.716 197.041H375.99V199.078H424.716V197.041Z" fill="#3F3D56"/>
<path d="M424.716 203.49H375.99V205.526H424.716V203.49Z" fill="#3F3D56"/>
<path d="M403.199 232.724H367.154V234.858H403.199V232.724Z" fill="#F2F2F2"/>
<path d="M417.427 238.058H367.154V240.192H417.427V238.058Z" fill="#F2F2F2"/>
<path d="M400.353 168.712C402.449 168.712 404.148 166.801 404.148 164.444C404.148 162.087 402.449 160.177 400.353 160.177C398.258 160.177 396.559 162.087 396.559 164.444C396.559 166.801 398.258 168.712 400.353 168.712Z" fill="#3F3D56"/>
</g>
<defs>
<clipPath id="clip0_21_61">
<rect width="569" height="296" fill="white"/>
</clipPath>
</defs>
</svg>
