<svg width="738" height="595" viewBox="0 0 738 595" fill="none" xmlns="http://www.w3.org/2000/svg">
<g clip-path="url(#clip0_3_82)">
<g filter="url(#filter0_d_3_82)">
<path d="M268.426 451.16C266.193 445.808 265.948 439.833 267.734 434.316C269.521 428.798 273.223 424.102 278.17 421.075C279.817 420.073 278.311 417.478 276.655 418.484C270.981 421.873 266.746 427.224 264.752 433.525C262.758 439.825 263.144 446.639 265.836 452.674C266.593 454.444 269.178 452.917 268.426 451.16H268.426Z" fill="#3F3D56"/>
</g>
<g filter="url(#filter1_d_3_82)">
<path d="M269.284 455.195C265.238 448.026 266.19 439.448 267.646 431.696C269.165 423.604 271.157 415.387 269.433 407.157C268.652 403.161 266.802 399.452 264.08 396.423C262.77 395 260.653 397.126 261.959 398.545C267.048 404.072 267.638 412.089 266.812 419.21C265.839 427.609 263.08 435.793 263.422 444.327C263.512 448.656 264.634 452.901 266.694 456.709C266.902 457.038 267.229 457.274 267.607 457.366C267.986 457.458 268.385 457.4 268.721 457.204C269.057 457.007 269.303 456.688 269.409 456.313C269.514 455.938 269.469 455.538 269.284 455.195L269.284 455.195Z" fill="#3F3D56"/>
</g>
<g filter="url(#filter2_d_3_82)">
<path d="M291 478.086H240C238.807 478.085 237.663 477.61 236.82 476.767C235.976 475.923 235.501 474.779 235.5 473.586V458.606C235.504 454.756 237.036 451.066 239.758 448.344C242.48 445.622 246.17 444.091 250.02 444.086H257.5C257.898 444.086 258.279 443.928 258.56 443.647C258.841 443.365 259 442.984 259 442.586V435.586C259.001 434.924 259.264 434.288 259.733 433.819C260.202 433.351 260.837 433.087 261.5 433.086H269.5C270.163 433.087 270.798 433.351 271.267 433.819C271.736 434.288 271.999 434.924 272 435.586V442.586C272 442.984 272.159 443.365 272.44 443.647C272.721 443.928 273.102 444.086 273.5 444.086H280.98C284.83 444.091 288.52 445.622 291.242 448.344C293.964 451.066 295.496 454.756 295.5 458.606V473.586C295.499 474.779 295.024 475.923 294.181 476.767C293.337 477.611 292.193 478.085 291 478.086V478.086Z" fill="#CCCCCC"/>
</g>
<g filter="url(#filter3_d_3_82)">
<path d="M266.284 388.126C267.358 393.825 266.028 398.859 263.315 399.37C260.601 399.881 257.531 395.676 256.457 389.978C255.383 384.279 258.685 374.803 258.685 374.803C258.685 374.803 265.21 382.427 266.284 388.126Z" fill="#FFEB60"/>
</g>
<g filter="url(#filter4_d_3_82)">
<path d="M286.877 414.638C283.477 419.336 278.907 421.831 276.67 420.212C274.433 418.593 275.377 413.472 278.777 408.775C282.177 404.077 291.33 399.961 291.33 399.961C291.33 399.961 290.278 409.941 286.877 414.638Z" fill="#A451F7"/>
</g>
<g filter="url(#filter5_d_3_82)">
<path d="M174.426 91.1601C172.193 85.8078 171.948 79.8332 173.734 74.3158C175.521 68.7983 179.223 64.1019 184.17 61.0749C185.817 60.0733 184.311 57.4778 182.655 58.4845C176.981 61.8726 172.746 67.2237 170.752 73.5245C168.758 79.8253 169.144 86.6386 171.836 92.6742C172.593 94.444 175.178 92.9174 174.426 91.1601H174.426Z" fill="#3F3D56"/>
</g>
<g filter="url(#filter6_d_3_82)">
<path d="M175.284 95.1949C171.238 88.0265 172.19 79.4479 173.646 71.696C175.165 63.6037 177.157 55.3873 175.433 47.157C174.652 43.1611 172.802 39.4517 170.08 36.4233C168.77 34.9999 166.653 37.1256 167.959 38.5446C173.048 44.0716 173.638 52.0894 172.812 59.21C171.839 67.6087 169.08 75.7927 169.422 84.327C169.512 88.656 170.634 92.9009 172.694 96.7091C172.902 97.0382 173.229 97.2738 173.607 97.366C173.986 97.4583 174.385 97.4001 174.721 97.2037C175.057 97.0073 175.303 96.688 175.409 96.3132C175.514 95.9385 175.469 95.5375 175.284 95.195L175.284 95.1949Z" fill="#3F3D56"/>
</g>
<g filter="url(#filter7_d_3_82)">
<path d="M197 118.086H146C144.807 118.085 143.663 117.611 142.819 116.767C141.976 115.923 141.501 114.779 141.5 113.586V98.6059C141.504 94.7564 143.036 91.0659 145.758 88.3439C148.48 85.6219 152.17 84.0908 156.02 84.0864H163.5C163.898 84.0859 164.279 83.9278 164.56 83.6465C164.841 83.3653 165 82.9841 165 82.5864V75.5864C165.001 74.9236 165.264 74.2881 165.733 73.8194C166.202 73.3508 166.837 73.0871 167.5 73.0864H175.5C176.163 73.0871 176.798 73.3508 177.267 73.8194C177.736 74.2881 177.999 74.9236 178 75.5864V82.5864C178 82.9841 178.159 83.3653 178.44 83.6465C178.721 83.9278 179.102 84.0859 179.5 84.0864H186.98C190.83 84.0908 194.52 85.6219 197.242 88.3439C199.964 91.0659 201.496 94.7564 201.5 98.6059V113.586C201.499 114.779 201.024 115.923 200.181 116.767C199.337 117.611 198.193 118.085 197 118.086V118.086Z" fill="#CCCCCC"/>
</g>
<g filter="url(#filter8_d_3_82)">
<path d="M172.284 28.1259C173.358 33.8246 172.028 38.8589 169.315 39.3702C166.601 39.8815 163.531 35.6763 162.457 29.9776C161.383 24.2789 164.685 14.8025 164.685 14.8025C164.685 14.8025 171.21 22.4272 172.284 28.1259Z" fill="#A551F8"/>
</g>
<g filter="url(#filter9_d_3_82)">
<path d="M192.877 54.6384C189.477 59.3358 184.907 61.8311 182.67 60.2119C180.433 58.5926 181.377 53.472 184.777 48.7746C188.177 44.0772 197.33 39.9609 197.33 39.9609C197.33 39.9609 196.278 49.9409 192.877 54.6384Z" fill="#FFEB60"/>
</g>
<g filter="url(#filter10_d_3_82)">
<path d="M73 272.586H32V287.586H73V272.586Z" fill="#A451F7"/>
</g>
<g filter="url(#filter11_d_3_82)">
<path d="M73 321.586H32V336.586H73V321.586Z" fill="#A451F7"/>
</g>
<g filter="url(#filter12_d_3_82)">
<path d="M323 593.586H17C12.4929 593.581 8.1718 591.789 4.98477 588.602C1.79775 585.415 0.00505274 581.093 0 576.586V17.5864C0.00505274 13.0792 1.79775 8.75816 4.98477 5.57114C8.1718 2.38411 12.4929 0.591417 17 0.586365H323C327.507 0.591439 331.828 2.38413 335.015 5.57115C338.202 8.75817 339.995 13.0792 340 17.5864V576.586C339.995 581.093 338.202 585.415 335.015 588.602C331.828 591.789 327.507 593.581 323 593.586V593.586ZM17 2.58636C13.0231 2.59086 9.21045 4.17266 6.39838 6.98473C3.58631 9.7968 2.0045 13.6095 2 17.5864V576.586C2.0045 580.563 3.58631 584.376 6.39838 587.188C9.21045 590 13.0231 591.582 17 591.586H323C326.977 591.582 330.79 590 333.602 587.188C336.414 584.376 337.996 580.563 338 576.586V17.5864C337.996 13.6095 336.414 9.7968 333.602 6.98473C330.79 4.17266 326.977 2.59086 323 2.58636H17Z" fill="#3F3D56"/>
</g>
<g filter="url(#filter13_d_3_82)">
<path d="M339 116.039H1V118.039H339V116.039Z" fill="#3F3D56"/>
</g>
<g filter="url(#filter14_d_3_82)">
<path d="M339 236.071H1V238.071H339V236.071Z" fill="#3F3D56"/>
</g>
<g filter="url(#filter15_d_3_82)">
<path d="M339 356.102H1V358.102H339V356.102Z" fill="#3F3D56"/>
</g>
<g filter="url(#filter16_d_3_82)">
<path d="M339 476.134H1V478.134H339V476.134Z" fill="#3F3D56"/>
</g>
<g filter="url(#filter17_d_3_82)">
<path d="M70 358.586H36C34.6744 358.585 33.4035 358.058 32.4662 357.12C31.5288 356.183 31.0015 354.912 31 353.586V256.586C31.0015 255.261 31.5288 253.99 32.4662 253.053C33.4035 252.115 34.6744 251.588 36 251.586H70C71.3256 251.588 72.5965 252.115 73.5338 253.053C74.4712 253.99 74.9985 255.261 75 256.586V353.586C74.9985 354.912 74.4712 356.183 73.5338 357.12C72.5965 358.058 71.3256 358.585 70 358.586V358.586ZM36 253.586C35.2046 253.587 34.4421 253.904 33.8797 254.466C33.3173 255.028 33.0009 255.791 33 256.586V353.586C33.0009 354.382 33.3173 355.144 33.8797 355.707C34.4421 356.269 35.2046 356.585 36 356.586H70C70.7954 356.585 71.5579 356.269 72.1203 355.707C72.6827 355.144 72.9991 354.382 73 353.586V256.586C72.9991 255.791 72.6827 255.028 72.1203 254.466C71.5579 253.904 70.7954 253.587 70 253.586H36Z" fill="#3F3D56"/>
</g>
<g filter="url(#filter18_d_3_82)">
<path d="M136 272.586H95V287.586H136V272.586Z" fill="#A451F7"/>
</g>
<g filter="url(#filter19_d_3_82)">
<path d="M136 321.586H95V336.586H136V321.586Z" fill="#A451F7"/>
</g>
<g filter="url(#filter20_d_3_82)">
<path d="M133 358.586H99C97.6744 358.585 96.4035 358.058 95.4662 357.12C94.5288 356.183 94.0015 354.912 94 353.586V256.586C94.0015 255.261 94.5288 253.99 95.4662 253.053C96.4035 252.115 97.6744 251.588 99 251.586H133C134.326 251.588 135.596 252.115 136.534 253.053C137.471 253.99 137.998 255.261 138 256.586V353.586C137.998 354.912 137.471 356.183 136.534 357.12C135.596 358.058 134.326 358.585 133 358.586V358.586ZM99 253.586C98.2046 253.587 97.4421 253.904 96.8797 254.466C96.3173 255.028 96.0009 255.791 96 256.586V353.586C96.0009 354.382 96.3173 355.144 96.8797 355.707C97.4421 356.269 98.2046 356.585 99 356.586H133C133.795 356.585 134.558 356.269 135.12 355.707C135.683 355.144 135.999 354.382 136 353.586V256.586C135.999 255.791 135.683 255.028 135.12 254.466C134.558 253.904 133.795 253.587 133 253.586H99Z" fill="#3F3D56"/>
</g>
<g filter="url(#filter21_d_3_82)">
<path d="M236 151.586H195V166.586H236V151.586Z" fill="#A451F7"/>
</g>
<g filter="url(#filter22_d_3_82)">
<path d="M236 200.586H195V215.586H236V200.586Z" fill="#A451F7"/>
</g>
<g filter="url(#filter23_d_3_82)">
<path d="M233 237.586H199C197.674 237.585 196.404 237.058 195.466 236.12C194.529 235.183 194.002 233.912 194 232.586V135.586C194.002 134.261 194.529 132.99 195.466 132.053C196.404 131.115 197.674 130.588 199 130.586H233C234.326 130.588 235.597 131.115 236.534 132.053C237.471 132.99 237.998 134.261 238 135.586V232.586C237.998 233.912 237.471 235.183 236.534 236.12C235.597 237.058 234.326 237.585 233 237.586V237.586ZM199 132.586C198.205 132.587 197.442 132.904 196.88 133.466C196.317 134.028 196.001 134.791 196 135.586V232.586C196.001 233.382 196.317 234.144 196.88 234.707C197.442 235.269 198.205 235.585 199 235.586H233C233.795 235.585 234.558 235.269 235.12 234.707C235.683 234.144 235.999 233.382 236 232.586V135.586C235.999 134.791 235.683 134.028 235.12 133.466C234.558 132.904 233.795 132.587 233 132.586H199Z" fill="#3F3D56"/>
</g>
<g filter="url(#filter24_d_3_82)">
<path d="M299 151.586H258V166.586H299V151.586Z" fill="#A451F7"/>
</g>
<g filter="url(#filter25_d_3_82)">
<path d="M299 200.586H258V215.586H299V200.586Z" fill="#A451F7"/>
</g>
<g filter="url(#filter26_d_3_82)">
<path d="M296 237.586H262C260.674 237.585 259.404 237.058 258.466 236.12C257.529 235.183 257.002 233.912 257 232.586V135.586C257.002 134.261 257.529 132.99 258.466 132.053C259.404 131.115 260.674 130.588 262 130.586H296C297.326 130.588 298.597 131.115 299.534 132.053C300.471 132.99 300.998 134.261 301 135.586V232.586C300.998 233.912 300.471 235.183 299.534 236.12C298.597 237.058 297.326 237.585 296 237.586V237.586ZM262 132.586C261.205 132.587 260.442 132.904 259.88 133.466C259.317 134.028 259.001 134.791 259 135.586V232.586C259.001 233.382 259.317 234.144 259.88 234.707C260.442 235.269 261.205 235.585 262 235.586H296C296.795 235.585 297.558 235.269 298.12 234.707C298.683 234.144 298.999 233.382 299 232.586V135.586C298.999 134.791 298.683 134.028 298.12 133.466C297.558 132.904 296.795 132.587 296 132.586H262Z" fill="#3F3D56"/>
</g>
<g filter="url(#filter27_d_3_82)">
<path d="M186.29 263.628L147.91 278.05L153.186 292.092L191.566 277.67L186.29 263.628Z" fill="#A451F7"/>
</g>
<g filter="url(#filter28_d_3_82)">
<path d="M203.526 309.497L165.146 323.919L170.422 337.96L208.802 323.538L203.526 309.497Z" fill="#A451F7"/>
</g>
<g filter="url(#filter29_d_3_82)">
<path d="M180.144 357.469C179.127 357.467 178.135 357.156 177.299 356.576C176.464 355.997 175.824 355.177 175.466 354.225L141.346 263.424C140.881 262.183 140.928 260.808 141.475 259.601C142.023 258.394 143.027 257.453 144.267 256.985L176.095 245.026C176.709 244.795 177.364 244.687 178.02 244.709C178.676 244.731 179.322 244.881 179.92 245.153C180.518 245.424 181.056 245.811 181.505 246.29C181.953 246.77 182.303 247.333 182.534 247.948L216.654 338.748C217.119 339.99 217.072 341.365 216.525 342.572C215.977 343.779 214.973 344.72 213.733 345.187H213.733L181.905 357.147C181.342 357.36 180.746 357.469 180.144 357.469V357.469ZM177.855 246.705C177.494 246.705 177.136 246.77 176.798 246.898L144.971 258.857C144.227 259.138 143.624 259.703 143.296 260.427C142.967 261.151 142.939 261.976 143.218 262.721L177.338 353.522C177.477 353.891 177.687 354.229 177.956 354.516C178.225 354.804 178.548 355.036 178.907 355.199C179.266 355.361 179.653 355.452 180.047 355.465C180.441 355.478 180.833 355.413 181.202 355.275L213.029 343.315C213.773 343.035 214.376 342.47 214.704 341.746C215.033 341.022 215.061 340.197 214.782 339.452L180.662 248.651C180.447 248.08 180.063 247.588 179.562 247.24C179.06 246.893 178.465 246.706 177.855 246.705V246.705Z" fill="#3F3D56"/>
</g>
<g filter="url(#filter30_d_3_82)">
<path d="M48.2898 144.628L9.91003 159.05L15.1864 173.092L53.5661 158.67L48.2898 144.628Z" fill="#A451F7"/>
</g>
<g filter="url(#filter31_d_3_82)">
<path d="M65.5258 190.497L27.146 204.919L32.4223 218.96L70.8021 204.538L65.5258 190.497Z" fill="#A451F7"/>
</g>
<g filter="url(#filter32_d_3_82)">
<path d="M42.1439 238.469C41.1271 238.467 40.1349 238.156 39.2993 237.576C38.4638 236.997 37.8243 236.177 37.4661 235.225L3.34582 144.424C2.8811 143.183 2.9277 141.808 3.47538 140.601C4.02306 139.394 5.0271 138.453 6.26732 137.985L38.0947 126.026C38.7094 125.795 39.3635 125.687 40.0198 125.709C40.6761 125.731 41.3216 125.881 41.9196 126.153C42.5176 126.424 43.0562 126.811 43.5048 127.29C43.9534 127.77 44.3031 128.333 44.5339 128.948L78.6542 219.748C79.1189 220.99 79.0723 222.365 78.5246 223.572C77.9769 224.779 76.9729 225.72 75.7327 226.187H75.7325L43.9053 238.147C43.3423 238.36 42.7456 238.469 42.1439 238.469ZM39.8552 127.705C39.4941 127.705 39.1361 127.77 38.7982 127.898L6.97106 139.857C6.22685 140.138 5.62436 140.703 5.29572 141.427C4.96709 142.151 4.93914 142.976 5.21801 143.721L39.3382 234.522C39.4768 234.891 39.6866 235.229 39.9558 235.516C40.225 235.804 40.5481 236.036 40.9069 236.199C41.2657 236.361 41.653 236.452 42.0468 236.465C42.4405 236.478 42.833 236.413 43.2018 236.275L75.0289 224.315C75.7731 224.035 76.3756 223.47 76.7043 222.746C77.0329 222.022 77.0608 221.197 76.782 220.452L42.6617 129.651C42.4467 129.08 42.0631 128.588 41.5618 128.24C41.0605 127.893 40.4653 127.706 39.8552 127.705V127.705Z" fill="#3F3D56"/>
</g>
<path d="M627 250.586C644.121 250.586 658 236.707 658 219.586C658 202.466 644.121 188.586 627 188.586C609.879 188.586 596 202.466 596 219.586C596 236.707 609.879 250.586 627 250.586Z" fill="#2F2E41"/>
<path d="M489.28 361.057C490.745 361.625 492.316 361.864 493.883 361.759C495.45 361.653 496.975 361.205 498.35 360.447C499.725 359.688 500.917 358.637 501.842 357.368C502.767 356.099 503.403 354.643 503.704 353.101L588.941 299.323L573.427 281.856L494.484 340.247C491.861 339.912 489.206 340.551 487.023 342.043C484.84 343.535 483.28 345.776 482.639 348.341C481.997 350.906 482.319 353.618 483.543 355.961C484.767 358.305 486.809 360.118 489.28 361.057V361.057Z" fill="#FFB8B8"/>
<path d="M571.146 313.621C570.392 313.622 569.649 313.434 568.986 313.073C568.323 312.712 567.762 312.191 567.353 311.557L557.482 296.218C556.86 295.25 556.631 294.08 556.845 292.948C557.059 291.817 557.698 290.811 558.631 290.136L591.661 266.263C593.263 265.105 595.082 264.279 597.009 263.836C598.937 263.393 600.933 263.341 602.881 263.683C604.829 264.024 606.688 264.754 608.349 265.827C610.01 266.9 611.439 268.295 612.552 269.93C613.664 271.566 614.437 273.407 614.825 275.346C615.213 277.285 615.209 279.283 614.811 281.22C614.414 283.157 613.632 284.995 612.512 286.625C611.392 288.255 609.956 289.643 608.29 290.709L573.561 312.914C572.84 313.376 572.002 313.621 571.146 313.621V313.621Z" fill="#2F2E41"/>
<path d="M585.894 581.436L573.635 581.435L567.802 534.147L585.897 534.148L585.894 581.436Z" fill="#FFB8B8"/>
<path d="M564.877 577.933H588.521V592.819H549.99C549.99 590.864 550.376 588.929 551.124 587.122C551.872 585.316 552.968 583.675 554.351 582.293C555.733 580.911 557.374 579.814 559.18 579.066C560.987 578.318 562.922 577.933 564.877 577.933V577.933Z" fill="#2F2E41"/>
<path d="M643.128 572.27L631.324 575.584L612.926 531.633L630.347 526.742L643.128 572.27Z" fill="#FFB8B8"/>
<path d="M621.947 574.578L644.711 568.188L648.734 582.521L611.637 592.935C611.109 591.052 610.956 589.084 611.189 587.143C611.421 585.202 612.033 583.326 612.99 581.621C613.948 579.917 615.231 578.417 616.768 577.209C618.305 576 620.064 575.107 621.947 574.578V574.578Z" fill="#2F2E41"/>
<path d="M676.16 499.7L628.564 443.529L657.445 408.485C657.869 407.971 658.401 407.557 659.004 407.274C659.607 406.991 660.265 406.845 660.931 406.847C661.597 406.849 662.254 406.999 662.855 407.286C663.456 407.572 663.986 407.989 664.406 408.505L708.108 462.139L676.16 499.7Z" fill="#A451F7"/>
<path d="M630.484 443.947C631.186 442.684 632.056 441.522 633.07 440.494L660.638 412.546C661.718 411.445 663.173 410.792 664.714 410.716C667.863 410.567 673.029 410.886 674.469 414.342L637.251 444.793L630.484 443.947Z" fill="#F2F2F2"/>
<path d="M677.814 511.585C675.691 511.522 673.628 510.869 671.856 509.699L671.725 509.563L628.133 442.894L635.366 442.195L674.133 411.956C674.622 411.575 675.186 411.298 675.787 411.145C676.388 410.991 677.015 410.964 677.628 411.064C678.24 411.164 678.825 411.39 679.346 411.727C679.867 412.065 680.313 412.506 680.655 413.024L723.031 477.162C723.682 478.152 723.916 479.359 723.685 480.521C723.453 481.683 722.774 482.707 721.794 483.372L680.787 511.023C679.841 511.399 678.832 511.59 677.814 511.585Z" fill="#A451F7"/>
<path d="M662.397 465.98C661.987 465.981 661.583 465.881 661.22 465.688C660.858 465.496 660.549 465.218 660.319 464.877L655.311 457.439C654.942 456.889 654.806 456.214 654.933 455.563C655.06 454.913 655.44 454.339 655.989 453.968L681.68 436.672C682.231 436.303 682.905 436.167 683.555 436.294C684.206 436.421 684.779 436.801 685.151 437.35L690.158 444.789C690.528 445.339 690.664 446.013 690.537 446.664C690.41 447.315 690.03 447.888 689.48 448.259L663.789 465.555C663.378 465.832 662.893 465.98 662.397 465.98Z" fill="#3F3D56"/>
<path d="M565.862 574.285C564.495 574.28 563.179 573.764 562.172 572.838C561.166 571.912 560.542 570.643 560.424 569.281C558.242 544.496 547.297 419.581 546.095 394.354C544.761 366.325 568.088 321.983 568.324 321.539L568.485 321.234L580.015 322.674V324.015L590.989 325.306L612.228 327.362L618.308 401.68L620.997 452.082L646.256 555.026C646.542 556.166 646.368 557.373 645.772 558.386C645.176 559.399 644.205 560.137 643.069 560.44L621.086 566.435C619.943 566.742 618.726 566.588 617.695 566.006C616.664 565.425 615.903 564.462 615.574 563.326L594.876 490.619C594.776 490.267 594.551 489.964 594.243 489.766C593.935 489.569 593.565 489.491 593.204 489.547C592.842 489.604 592.514 489.79 592.28 490.071C592.046 490.353 591.923 490.71 591.934 491.076L594.124 561.971C594.135 562.699 593.997 563.421 593.719 564.094C593.441 564.767 593.028 565.376 592.506 565.883C587.467 570.616 574.153 573.142 566.665 574.227C566.399 574.265 566.131 574.285 565.862 574.285V574.285Z" fill="#2F2E41"/>
<path d="M631.918 261.979C628.43 258.342 605.445 263.34 600.342 268.697L565.406 325.803L623.185 336.553L635.95 263.994L631.918 261.979Z" fill="#FFEB60"/>
<path d="M616.774 407.066C615.53 407.066 614.294 406.861 613.117 406.456C609.76 405.305 605.646 404.1 600.889 402.877C580.056 397.52 572.7 380.368 579.027 351.897L579.187 351.174C585.128 324.167 596.327 298.594 612.144 275.912L614.594 272.392C617.551 268.146 621.692 264.862 626.5 262.95C631.308 261.038 636.573 260.581 641.639 261.636C651.013 263.57 656.046 266.372 656.599 269.964C657.684 277.014 636.745 362.234 627.692 398.546C627.086 400.982 625.681 403.144 623.702 404.688C621.723 406.232 619.284 407.069 616.775 407.066L616.774 407.066Z" fill="#2F2E41"/>
<path d="M545.004 396.125C544.459 396.125 543.918 396.041 543.399 395.875L536.646 393.715C535.948 393.492 535.304 393.125 534.756 392.638C534.208 392.152 533.767 391.556 533.462 390.89C533.157 390.223 532.994 389.5 532.985 388.768C532.975 388.035 533.118 387.308 533.405 386.633L569.237 302.53C576.102 286.486 588.106 273.179 603.36 264.703H603.361C603.582 264.581 603.826 264.506 604.077 264.482C604.328 264.459 604.582 264.487 604.822 264.566C605.042 264.636 605.246 264.752 605.419 264.905C605.592 265.059 605.731 265.247 605.827 265.457C610.041 274.728 587.104 318.601 568.675 353.853C559.237 371.904 551.087 387.494 550.159 391.939C549.912 393.123 549.264 394.185 548.325 394.948C547.386 395.71 546.213 396.126 545.004 396.125V396.125Z" fill="#2F2E41"/>
<path d="M655.859 415.29C657.117 414.35 658.155 413.147 658.898 411.763C659.641 410.379 660.071 408.85 660.159 407.281C660.247 405.713 659.99 404.145 659.406 402.687C658.822 401.229 657.926 399.917 656.78 398.843L656.495 298.059L633.455 301.925L640.991 399.827C639.314 401.871 638.446 404.46 638.55 407.102C638.654 409.744 639.724 412.256 641.557 414.162C643.389 416.068 645.857 417.236 648.493 417.443C651.129 417.651 653.75 416.885 655.859 415.29V415.29Z" fill="#FFB8B8"/>
<path d="M637.099 323.063C635.957 323.063 634.858 322.628 634.025 321.848C633.191 321.067 632.686 319.999 632.611 318.86L629.93 278.194C629.677 274.281 630.986 270.428 633.57 267.479C636.154 264.53 639.803 262.726 643.715 262.463C645.723 262.331 647.738 262.61 649.635 263.284C651.532 263.957 653.271 265.011 654.747 266.38C656.222 267.749 657.403 269.405 658.216 271.247C659.029 273.088 659.458 275.076 659.476 277.089L659.84 318.309C659.848 319.5 659.385 320.645 658.552 321.496C657.719 322.346 656.583 322.833 655.393 322.849L637.154 323.063L637.099 323.063Z" fill="#2F2E41"/>
<path d="M620.614 252.163C634.179 252.163 645.175 241.167 645.175 227.602C645.175 214.037 634.179 203.041 620.614 203.041C607.05 203.041 596.053 214.037 596.053 227.602C596.053 241.167 607.05 252.163 620.614 252.163Z" fill="#FFB8B8"/>
<path d="M641.036 244.788C642.867 238.959 644.549 232.085 640.924 227.166C638.312 223.621 633.622 222.249 629.223 222.053C624.825 221.856 620.414 222.602 616.024 222.253C611.635 221.904 606.996 220.172 604.767 216.375C601.876 211.452 604.324 204.671 608.972 201.355C613.62 198.04 619.761 197.577 625.417 198.349C632.576 199.199 639.305 202.209 644.71 206.979C649.968 211.832 653.395 218.827 653.243 225.981C653.09 233.135 649.078 240.259 642.684 243.471" fill="#2F2E41"/>
<path d="M634.912 191.12C629.032 189.309 626.32 181.536 628.949 175.974C631.579 170.411 638.3 167.499 644.403 168.273C650.507 169.048 655.885 172.964 659.594 177.872C663.304 182.78 665.541 188.631 667.406 194.494C669.271 200.357 670.822 206.347 673.369 211.947C677.412 220.552 683.647 227.941 691.45 233.372C699.252 238.804 708.347 242.086 717.82 242.889C721.949 243.189 726.233 242.974 729.996 241.248C733.759 239.523 736.915 236.043 737.337 231.925C739.478 246.554 730.968 262.101 717.49 268.18C704.013 274.259 686.726 270.348 677.177 259.06C667.846 248.029 666.401 232.454 666.626 218.008C666.687 214.046 666.833 210.01 665.739 206.202C664.644 202.394 662.054 198.773 658.281 197.564C655.237 196.588 651.94 197.292 648.819 197.983C645.698 198.675 642.384 199.341 639.363 198.298C636.341 197.255 633.908 193.819 635.125 190.863" fill="#2F2E41"/>
<path d="M732.083 594.586H468.083C467.817 594.586 467.563 594.481 467.376 594.293C467.188 594.106 467.083 593.852 467.083 593.586C467.083 593.321 467.188 593.067 467.376 592.879C467.563 592.692 467.817 592.586 468.083 592.586H732.083C732.348 592.586 732.602 592.692 732.79 592.879C732.977 593.067 733.083 593.321 733.083 593.586C733.083 593.852 732.977 594.106 732.79 594.293C732.602 594.481 732.348 594.586 732.083 594.586Z" fill="#CCCCCC"/>
</g>
<defs>
<filter id="filter0_d_3_82" x="259.494" y="418.257" width="23.3884" height="43.2047" filterUnits="userSpaceOnUse" color-interpolation-filters="sRGB">
<feFlood flood-opacity="0" result="BackgroundImageFix"/>
<feColorMatrix in="SourceAlpha" type="matrix" values="0 0 0 0 0 0 0 0 0 0 0 0 0 0 0 0 0 0 127 0" result="hardAlpha"/>
<feOffset dy="4"/>
<feGaussianBlur stdDeviation="2"/>
<feComposite in2="hardAlpha" operator="out"/>
<feColorMatrix type="matrix" values="0 0 0 0 0 0 0 0 0 0 0 0 0 0 0 0 0 0 0.25 0"/>
<feBlend mode="normal" in2="BackgroundImageFix" result="effect1_dropShadow_3_82"/>
<feBlend mode="normal" in="SourceGraphic" in2="effect1_dropShadow_3_82" result="shape"/>
</filter>
<filter id="filter1_d_3_82" x="257.549" y="395.953" width="16.5505" height="69.4563" filterUnits="userSpaceOnUse" color-interpolation-filters="sRGB">
<feFlood flood-opacity="0" result="BackgroundImageFix"/>
<feColorMatrix in="SourceAlpha" type="matrix" values="0 0 0 0 0 0 0 0 0 0 0 0 0 0 0 0 0 0 127 0" result="hardAlpha"/>
<feOffset dy="4"/>
<feGaussianBlur stdDeviation="2"/>
<feComposite in2="hardAlpha" operator="out"/>
<feColorMatrix type="matrix" values="0 0 0 0 0 0 0 0 0 0 0 0 0 0 0 0 0 0 0.25 0"/>
<feBlend mode="normal" in2="BackgroundImageFix" result="effect1_dropShadow_3_82"/>
<feBlend mode="normal" in="SourceGraphic" in2="effect1_dropShadow_3_82" result="shape"/>
</filter>
<filter id="filter2_d_3_82" x="231.5" y="433.086" width="68.0001" height="53" filterUnits="userSpaceOnUse" color-interpolation-filters="sRGB">
<feFlood flood-opacity="0" result="BackgroundImageFix"/>
<feColorMatrix in="SourceAlpha" type="matrix" values="0 0 0 0 0 0 0 0 0 0 0 0 0 0 0 0 0 0 127 0" result="hardAlpha"/>
<feOffset dy="4"/>
<feGaussianBlur stdDeviation="2"/>
<feComposite in2="hardAlpha" operator="out"/>
<feColorMatrix type="matrix" values="0 0 0 0 0 0 0 0 0 0 0 0 0 0 0 0 0 0 0.25 0"/>
<feBlend mode="normal" in2="BackgroundImageFix" result="effect1_dropShadow_3_82"/>
<feBlend mode="normal" in="SourceGraphic" in2="effect1_dropShadow_3_82" result="shape"/>
</filter>
<filter id="filter3_d_3_82" x="252.242" y="374.803" width="18.4139" height="32.6097" filterUnits="userSpaceOnUse" color-interpolation-filters="sRGB">
<feFlood flood-opacity="0" result="BackgroundImageFix"/>
<feColorMatrix in="SourceAlpha" type="matrix" values="0 0 0 0 0 0 0 0 0 0 0 0 0 0 0 0 0 0 127 0" result="hardAlpha"/>
<feOffset dy="4"/>
<feGaussianBlur stdDeviation="2"/>
<feComposite in2="hardAlpha" operator="out"/>
<feColorMatrix type="matrix" values="0 0 0 0 0 0 0 0 0 0 0 0 0 0 0 0 0 0 0.25 0"/>
<feBlend mode="normal" in2="BackgroundImageFix" result="effect1_dropShadow_3_82"/>
<feBlend mode="normal" in="SourceGraphic" in2="effect1_dropShadow_3_82" result="shape"/>
</filter>
<filter id="filter4_d_3_82" x="271.457" y="399.961" width="23.873" height="28.7445" filterUnits="userSpaceOnUse" color-interpolation-filters="sRGB">
<feFlood flood-opacity="0" result="BackgroundImageFix"/>
<feColorMatrix in="SourceAlpha" type="matrix" values="0 0 0 0 0 0 0 0 0 0 0 0 0 0 0 0 0 0 127 0" result="hardAlpha"/>
<feOffset dy="4"/>
<feGaussianBlur stdDeviation="2"/>
<feComposite in2="hardAlpha" operator="out"/>
<feColorMatrix type="matrix" values="0 0 0 0 0 0 0 0 0 0 0 0 0 0 0 0 0 0 0.25 0"/>
<feBlend mode="normal" in2="BackgroundImageFix" result="effect1_dropShadow_3_82"/>
<feBlend mode="normal" in="SourceGraphic" in2="effect1_dropShadow_3_82" result="shape"/>
</filter>
<filter id="filter5_d_3_82" x="165.494" y="58.2566" width="23.3884" height="43.2046" filterUnits="userSpaceOnUse" color-interpolation-filters="sRGB">
<feFlood flood-opacity="0" result="BackgroundImageFix"/>
<feColorMatrix in="SourceAlpha" type="matrix" values="0 0 0 0 0 0 0 0 0 0 0 0 0 0 0 0 0 0 127 0" result="hardAlpha"/>
<feOffset dy="4"/>
<feGaussianBlur stdDeviation="2"/>
<feComposite in2="hardAlpha" operator="out"/>
<feColorMatrix type="matrix" values="0 0 0 0 0 0 0 0 0 0 0 0 0 0 0 0 0 0 0.25 0"/>
<feBlend mode="normal" in2="BackgroundImageFix" result="effect1_dropShadow_3_82"/>
<feBlend mode="normal" in="SourceGraphic" in2="effect1_dropShadow_3_82" result="shape"/>
</filter>
<filter id="filter6_d_3_82" x="163.549" y="35.9525" width="16.5505" height="69.4563" filterUnits="userSpaceOnUse" color-interpolation-filters="sRGB">
<feFlood flood-opacity="0" result="BackgroundImageFix"/>
<feColorMatrix in="SourceAlpha" type="matrix" values="0 0 0 0 0 0 0 0 0 0 0 0 0 0 0 0 0 0 127 0" result="hardAlpha"/>
<feOffset dy="4"/>
<feGaussianBlur stdDeviation="2"/>
<feComposite in2="hardAlpha" operator="out"/>
<feColorMatrix type="matrix" values="0 0 0 0 0 0 0 0 0 0 0 0 0 0 0 0 0 0 0.25 0"/>
<feBlend mode="normal" in2="BackgroundImageFix" result="effect1_dropShadow_3_82"/>
<feBlend mode="normal" in="SourceGraphic" in2="effect1_dropShadow_3_82" result="shape"/>
</filter>
<filter id="filter7_d_3_82" x="137.5" y="73.0864" width="68" height="53" filterUnits="userSpaceOnUse" color-interpolation-filters="sRGB">
<feFlood flood-opacity="0" result="BackgroundImageFix"/>
<feColorMatrix in="SourceAlpha" type="matrix" values="0 0 0 0 0 0 0 0 0 0 0 0 0 0 0 0 0 0 127 0" result="hardAlpha"/>
<feOffset dy="4"/>
<feGaussianBlur stdDeviation="2"/>
<feComposite in2="hardAlpha" operator="out"/>
<feColorMatrix type="matrix" values="0 0 0 0 0 0 0 0 0 0 0 0 0 0 0 0 0 0 0.25 0"/>
<feBlend mode="normal" in2="BackgroundImageFix" result="effect1_dropShadow_3_82"/>
<feBlend mode="normal" in="SourceGraphic" in2="effect1_dropShadow_3_82" result="shape"/>
</filter>
<filter id="filter8_d_3_82" x="158.242" y="14.8025" width="18.4139" height="32.6098" filterUnits="userSpaceOnUse" color-interpolation-filters="sRGB">
<feFlood flood-opacity="0" result="BackgroundImageFix"/>
<feColorMatrix in="SourceAlpha" type="matrix" values="0 0 0 0 0 0 0 0 0 0 0 0 0 0 0 0 0 0 127 0" result="hardAlpha"/>
<feOffset dy="4"/>
<feGaussianBlur stdDeviation="2"/>
<feComposite in2="hardAlpha" operator="out"/>
<feColorMatrix type="matrix" values="0 0 0 0 0 0 0 0 0 0 0 0 0 0 0 0 0 0 0.25 0"/>
<feBlend mode="normal" in2="BackgroundImageFix" result="effect1_dropShadow_3_82"/>
<feBlend mode="normal" in="SourceGraphic" in2="effect1_dropShadow_3_82" result="shape"/>
</filter>
<filter id="filter9_d_3_82" x="177.457" y="39.9609" width="23.873" height="28.7445" filterUnits="userSpaceOnUse" color-interpolation-filters="sRGB">
<feFlood flood-opacity="0" result="BackgroundImageFix"/>
<feColorMatrix in="SourceAlpha" type="matrix" values="0 0 0 0 0 0 0 0 0 0 0 0 0 0 0 0 0 0 127 0" result="hardAlpha"/>
<feOffset dy="4"/>
<feGaussianBlur stdDeviation="2"/>
<feComposite in2="hardAlpha" operator="out"/>
<feColorMatrix type="matrix" values="0 0 0 0 0 0 0 0 0 0 0 0 0 0 0 0 0 0 0.25 0"/>
<feBlend mode="normal" in2="BackgroundImageFix" result="effect1_dropShadow_3_82"/>
<feBlend mode="normal" in="SourceGraphic" in2="effect1_dropShadow_3_82" result="shape"/>
</filter>
<filter id="filter10_d_3_82" x="28" y="272.586" width="49" height="23" filterUnits="userSpaceOnUse" color-interpolation-filters="sRGB">
<feFlood flood-opacity="0" result="BackgroundImageFix"/>
<feColorMatrix in="SourceAlpha" type="matrix" values="0 0 0 0 0 0 0 0 0 0 0 0 0 0 0 0 0 0 127 0" result="hardAlpha"/>
<feOffset dy="4"/>
<feGaussianBlur stdDeviation="2"/>
<feComposite in2="hardAlpha" operator="out"/>
<feColorMatrix type="matrix" values="0 0 0 0 0 0 0 0 0 0 0 0 0 0 0 0 0 0 0.25 0"/>
<feBlend mode="normal" in2="BackgroundImageFix" result="effect1_dropShadow_3_82"/>
<feBlend mode="normal" in="SourceGraphic" in2="effect1_dropShadow_3_82" result="shape"/>
</filter>
<filter id="filter11_d_3_82" x="28" y="321.586" width="49" height="23" filterUnits="userSpaceOnUse" color-interpolation-filters="sRGB">
<feFlood flood-opacity="0" result="BackgroundImageFix"/>
<feColorMatrix in="SourceAlpha" type="matrix" values="0 0 0 0 0 0 0 0 0 0 0 0 0 0 0 0 0 0 127 0" result="hardAlpha"/>
<feOffset dy="4"/>
<feGaussianBlur stdDeviation="2"/>
<feComposite in2="hardAlpha" operator="out"/>
<feColorMatrix type="matrix" values="0 0 0 0 0 0 0 0 0 0 0 0 0 0 0 0 0 0 0.25 0"/>
<feBlend mode="normal" in2="BackgroundImageFix" result="effect1_dropShadow_3_82"/>
<feBlend mode="normal" in="SourceGraphic" in2="effect1_dropShadow_3_82" result="shape"/>
</filter>
<filter id="filter12_d_3_82" x="-4" y="0.586365" width="348" height="601" filterUnits="userSpaceOnUse" color-interpolation-filters="sRGB">
<feFlood flood-opacity="0" result="BackgroundImageFix"/>
<feColorMatrix in="SourceAlpha" type="matrix" values="0 0 0 0 0 0 0 0 0 0 0 0 0 0 0 0 0 0 127 0" result="hardAlpha"/>
<feOffset dy="4"/>
<feGaussianBlur stdDeviation="2"/>
<feComposite in2="hardAlpha" operator="out"/>
<feColorMatrix type="matrix" values="0 0 0 0 0 0 0 0 0 0 0 0 0 0 0 0 0 0 0.25 0"/>
<feBlend mode="normal" in2="BackgroundImageFix" result="effect1_dropShadow_3_82"/>
<feBlend mode="normal" in="SourceGraphic" in2="effect1_dropShadow_3_82" result="shape"/>
</filter>
<filter id="filter13_d_3_82" x="-3" y="116.039" width="346" height="10" filterUnits="userSpaceOnUse" color-interpolation-filters="sRGB">
<feFlood flood-opacity="0" result="BackgroundImageFix"/>
<feColorMatrix in="SourceAlpha" type="matrix" values="0 0 0 0 0 0 0 0 0 0 0 0 0 0 0 0 0 0 127 0" result="hardAlpha"/>
<feOffset dy="4"/>
<feGaussianBlur stdDeviation="2"/>
<feComposite in2="hardAlpha" operator="out"/>
<feColorMatrix type="matrix" values="0 0 0 0 0 0 0 0 0 0 0 0 0 0 0 0 0 0 0.25 0"/>
<feBlend mode="normal" in2="BackgroundImageFix" result="effect1_dropShadow_3_82"/>
<feBlend mode="normal" in="SourceGraphic" in2="effect1_dropShadow_3_82" result="shape"/>
</filter>
<filter id="filter14_d_3_82" x="-3" y="236.071" width="346" height="10" filterUnits="userSpaceOnUse" color-interpolation-filters="sRGB">
<feFlood flood-opacity="0" result="BackgroundImageFix"/>
<feColorMatrix in="SourceAlpha" type="matrix" values="0 0 0 0 0 0 0 0 0 0 0 0 0 0 0 0 0 0 127 0" result="hardAlpha"/>
<feOffset dy="4"/>
<feGaussianBlur stdDeviation="2"/>
<feComposite in2="hardAlpha" operator="out"/>
<feColorMatrix type="matrix" values="0 0 0 0 0 0 0 0 0 0 0 0 0 0 0 0 0 0 0.25 0"/>
<feBlend mode="normal" in2="BackgroundImageFix" result="effect1_dropShadow_3_82"/>
<feBlend mode="normal" in="SourceGraphic" in2="effect1_dropShadow_3_82" result="shape"/>
</filter>
<filter id="filter15_d_3_82" x="-3" y="356.102" width="346" height="10" filterUnits="userSpaceOnUse" color-interpolation-filters="sRGB">
<feFlood flood-opacity="0" result="BackgroundImageFix"/>
<feColorMatrix in="SourceAlpha" type="matrix" values="0 0 0 0 0 0 0 0 0 0 0 0 0 0 0 0 0 0 127 0" result="hardAlpha"/>
<feOffset dy="4"/>
<feGaussianBlur stdDeviation="2"/>
<feComposite in2="hardAlpha" operator="out"/>
<feColorMatrix type="matrix" values="0 0 0 0 0 0 0 0 0 0 0 0 0 0 0 0 0 0 0.25 0"/>
<feBlend mode="normal" in2="BackgroundImageFix" result="effect1_dropShadow_3_82"/>
<feBlend mode="normal" in="SourceGraphic" in2="effect1_dropShadow_3_82" result="shape"/>
</filter>
<filter id="filter16_d_3_82" x="-3" y="476.134" width="346" height="10" filterUnits="userSpaceOnUse" color-interpolation-filters="sRGB">
<feFlood flood-opacity="0" result="BackgroundImageFix"/>
<feColorMatrix in="SourceAlpha" type="matrix" values="0 0 0 0 0 0 0 0 0 0 0 0 0 0 0 0 0 0 127 0" result="hardAlpha"/>
<feOffset dy="4"/>
<feGaussianBlur stdDeviation="2"/>
<feComposite in2="hardAlpha" operator="out"/>
<feColorMatrix type="matrix" values="0 0 0 0 0 0 0 0 0 0 0 0 0 0 0 0 0 0 0.25 0"/>
<feBlend mode="normal" in2="BackgroundImageFix" result="effect1_dropShadow_3_82"/>
<feBlend mode="normal" in="SourceGraphic" in2="effect1_dropShadow_3_82" result="shape"/>
</filter>
<filter id="filter17_d_3_82" x="27" y="251.586" width="52" height="115" filterUnits="userSpaceOnUse" color-interpolation-filters="sRGB">
<feFlood flood-opacity="0" result="BackgroundImageFix"/>
<feColorMatrix in="SourceAlpha" type="matrix" values="0 0 0 0 0 0 0 0 0 0 0 0 0 0 0 0 0 0 127 0" result="hardAlpha"/>
<feOffset dy="4"/>
<feGaussianBlur stdDeviation="2"/>
<feComposite in2="hardAlpha" operator="out"/>
<feColorMatrix type="matrix" values="0 0 0 0 0 0 0 0 0 0 0 0 0 0 0 0 0 0 0.25 0"/>
<feBlend mode="normal" in2="BackgroundImageFix" result="effect1_dropShadow_3_82"/>
<feBlend mode="normal" in="SourceGraphic" in2="effect1_dropShadow_3_82" result="shape"/>
</filter>
<filter id="filter18_d_3_82" x="91" y="272.586" width="49" height="23" filterUnits="userSpaceOnUse" color-interpolation-filters="sRGB">
<feFlood flood-opacity="0" result="BackgroundImageFix"/>
<feColorMatrix in="SourceAlpha" type="matrix" values="0 0 0 0 0 0 0 0 0 0 0 0 0 0 0 0 0 0 127 0" result="hardAlpha"/>
<feOffset dy="4"/>
<feGaussianBlur stdDeviation="2"/>
<feComposite in2="hardAlpha" operator="out"/>
<feColorMatrix type="matrix" values="0 0 0 0 0 0 0 0 0 0 0 0 0 0 0 0 0 0 0.25 0"/>
<feBlend mode="normal" in2="BackgroundImageFix" result="effect1_dropShadow_3_82"/>
<feBlend mode="normal" in="SourceGraphic" in2="effect1_dropShadow_3_82" result="shape"/>
</filter>
<filter id="filter19_d_3_82" x="91" y="321.586" width="49" height="23" filterUnits="userSpaceOnUse" color-interpolation-filters="sRGB">
<feFlood flood-opacity="0" result="BackgroundImageFix"/>
<feColorMatrix in="SourceAlpha" type="matrix" values="0 0 0 0 0 0 0 0 0 0 0 0 0 0 0 0 0 0 127 0" result="hardAlpha"/>
<feOffset dy="4"/>
<feGaussianBlur stdDeviation="2"/>
<feComposite in2="hardAlpha" operator="out"/>
<feColorMatrix type="matrix" values="0 0 0 0 0 0 0 0 0 0 0 0 0 0 0 0 0 0 0.25 0"/>
<feBlend mode="normal" in2="BackgroundImageFix" result="effect1_dropShadow_3_82"/>
<feBlend mode="normal" in="SourceGraphic" in2="effect1_dropShadow_3_82" result="shape"/>
</filter>
<filter id="filter20_d_3_82" x="90" y="251.586" width="52" height="115" filterUnits="userSpaceOnUse" color-interpolation-filters="sRGB">
<feFlood flood-opacity="0" result="BackgroundImageFix"/>
<feColorMatrix in="SourceAlpha" type="matrix" values="0 0 0 0 0 0 0 0 0 0 0 0 0 0 0 0 0 0 127 0" result="hardAlpha"/>
<feOffset dy="4"/>
<feGaussianBlur stdDeviation="2"/>
<feComposite in2="hardAlpha" operator="out"/>
<feColorMatrix type="matrix" values="0 0 0 0 0 0 0 0 0 0 0 0 0 0 0 0 0 0 0.25 0"/>
<feBlend mode="normal" in2="BackgroundImageFix" result="effect1_dropShadow_3_82"/>
<feBlend mode="normal" in="SourceGraphic" in2="effect1_dropShadow_3_82" result="shape"/>
</filter>
<filter id="filter21_d_3_82" x="191" y="151.586" width="49" height="23" filterUnits="userSpaceOnUse" color-interpolation-filters="sRGB">
<feFlood flood-opacity="0" result="BackgroundImageFix"/>
<feColorMatrix in="SourceAlpha" type="matrix" values="0 0 0 0 0 0 0 0 0 0 0 0 0 0 0 0 0 0 127 0" result="hardAlpha"/>
<feOffset dy="4"/>
<feGaussianBlur stdDeviation="2"/>
<feComposite in2="hardAlpha" operator="out"/>
<feColorMatrix type="matrix" values="0 0 0 0 0 0 0 0 0 0 0 0 0 0 0 0 0 0 0.25 0"/>
<feBlend mode="normal" in2="BackgroundImageFix" result="effect1_dropShadow_3_82"/>
<feBlend mode="normal" in="SourceGraphic" in2="effect1_dropShadow_3_82" result="shape"/>
</filter>
<filter id="filter22_d_3_82" x="191" y="200.586" width="49" height="23" filterUnits="userSpaceOnUse" color-interpolation-filters="sRGB">
<feFlood flood-opacity="0" result="BackgroundImageFix"/>
<feColorMatrix in="SourceAlpha" type="matrix" values="0 0 0 0 0 0 0 0 0 0 0 0 0 0 0 0 0 0 127 0" result="hardAlpha"/>
<feOffset dy="4"/>
<feGaussianBlur stdDeviation="2"/>
<feComposite in2="hardAlpha" operator="out"/>
<feColorMatrix type="matrix" values="0 0 0 0 0 0 0 0 0 0 0 0 0 0 0 0 0 0 0.25 0"/>
<feBlend mode="normal" in2="BackgroundImageFix" result="effect1_dropShadow_3_82"/>
<feBlend mode="normal" in="SourceGraphic" in2="effect1_dropShadow_3_82" result="shape"/>
</filter>
<filter id="filter23_d_3_82" x="190" y="130.586" width="52" height="115" filterUnits="userSpaceOnUse" color-interpolation-filters="sRGB">
<feFlood flood-opacity="0" result="BackgroundImageFix"/>
<feColorMatrix in="SourceAlpha" type="matrix" values="0 0 0 0 0 0 0 0 0 0 0 0 0 0 0 0 0 0 127 0" result="hardAlpha"/>
<feOffset dy="4"/>
<feGaussianBlur stdDeviation="2"/>
<feComposite in2="hardAlpha" operator="out"/>
<feColorMatrix type="matrix" values="0 0 0 0 0 0 0 0 0 0 0 0 0 0 0 0 0 0 0.25 0"/>
<feBlend mode="normal" in2="BackgroundImageFix" result="effect1_dropShadow_3_82"/>
<feBlend mode="normal" in="SourceGraphic" in2="effect1_dropShadow_3_82" result="shape"/>
</filter>
<filter id="filter24_d_3_82" x="254" y="151.586" width="49" height="23" filterUnits="userSpaceOnUse" color-interpolation-filters="sRGB">
<feFlood flood-opacity="0" result="BackgroundImageFix"/>
<feColorMatrix in="SourceAlpha" type="matrix" values="0 0 0 0 0 0 0 0 0 0 0 0 0 0 0 0 0 0 127 0" result="hardAlpha"/>
<feOffset dy="4"/>
<feGaussianBlur stdDeviation="2"/>
<feComposite in2="hardAlpha" operator="out"/>
<feColorMatrix type="matrix" values="0 0 0 0 0 0 0 0 0 0 0 0 0 0 0 0 0 0 0.25 0"/>
<feBlend mode="normal" in2="BackgroundImageFix" result="effect1_dropShadow_3_82"/>
<feBlend mode="normal" in="SourceGraphic" in2="effect1_dropShadow_3_82" result="shape"/>
</filter>
<filter id="filter25_d_3_82" x="254" y="200.586" width="49" height="23" filterUnits="userSpaceOnUse" color-interpolation-filters="sRGB">
<feFlood flood-opacity="0" result="BackgroundImageFix"/>
<feColorMatrix in="SourceAlpha" type="matrix" values="0 0 0 0 0 0 0 0 0 0 0 0 0 0 0 0 0 0 127 0" result="hardAlpha"/>
<feOffset dy="4"/>
<feGaussianBlur stdDeviation="2"/>
<feComposite in2="hardAlpha" operator="out"/>
<feColorMatrix type="matrix" values="0 0 0 0 0 0 0 0 0 0 0 0 0 0 0 0 0 0 0.25 0"/>
<feBlend mode="normal" in2="BackgroundImageFix" result="effect1_dropShadow_3_82"/>
<feBlend mode="normal" in="SourceGraphic" in2="effect1_dropShadow_3_82" result="shape"/>
</filter>
<filter id="filter26_d_3_82" x="253" y="130.586" width="52" height="115" filterUnits="userSpaceOnUse" color-interpolation-filters="sRGB">
<feFlood flood-opacity="0" result="BackgroundImageFix"/>
<feColorMatrix in="SourceAlpha" type="matrix" values="0 0 0 0 0 0 0 0 0 0 0 0 0 0 0 0 0 0 127 0" result="hardAlpha"/>
<feOffset dy="4"/>
<feGaussianBlur stdDeviation="2"/>
<feComposite in2="hardAlpha" operator="out"/>
<feColorMatrix type="matrix" values="0 0 0 0 0 0 0 0 0 0 0 0 0 0 0 0 0 0 0.25 0"/>
<feBlend mode="normal" in2="BackgroundImageFix" result="effect1_dropShadow_3_82"/>
<feBlend mode="normal" in="SourceGraphic" in2="effect1_dropShadow_3_82" result="shape"/>
</filter>
<filter id="filter27_d_3_82" x="143.91" y="263.628" width="51.6561" height="36.4633" filterUnits="userSpaceOnUse" color-interpolation-filters="sRGB">
<feFlood flood-opacity="0" result="BackgroundImageFix"/>
<feColorMatrix in="SourceAlpha" type="matrix" values="0 0 0 0 0 0 0 0 0 0 0 0 0 0 0 0 0 0 127 0" result="hardAlpha"/>
<feOffset dy="4"/>
<feGaussianBlur stdDeviation="2"/>
<feComposite in2="hardAlpha" operator="out"/>
<feColorMatrix type="matrix" values="0 0 0 0 0 0 0 0 0 0 0 0 0 0 0 0 0 0 0.25 0"/>
<feBlend mode="normal" in2="BackgroundImageFix" result="effect1_dropShadow_3_82"/>
<feBlend mode="normal" in="SourceGraphic" in2="effect1_dropShadow_3_82" result="shape"/>
</filter>
<filter id="filter28_d_3_82" x="161.146" y="309.497" width="51.6561" height="36.4633" filterUnits="userSpaceOnUse" color-interpolation-filters="sRGB">
<feFlood flood-opacity="0" result="BackgroundImageFix"/>
<feColorMatrix in="SourceAlpha" type="matrix" values="0 0 0 0 0 0 0 0 0 0 0 0 0 0 0 0 0 0 127 0" result="hardAlpha"/>
<feOffset dy="4"/>
<feGaussianBlur stdDeviation="2"/>
<feComposite in2="hardAlpha" operator="out"/>
<feColorMatrix type="matrix" values="0 0 0 0 0 0 0 0 0 0 0 0 0 0 0 0 0 0 0.25 0"/>
<feBlend mode="normal" in2="BackgroundImageFix" result="effect1_dropShadow_3_82"/>
<feBlend mode="normal" in="SourceGraphic" in2="effect1_dropShadow_3_82" result="shape"/>
</filter>
<filter id="filter29_d_3_82" x="137.028" y="244.706" width="83.9438" height="120.763" filterUnits="userSpaceOnUse" color-interpolation-filters="sRGB">
<feFlood flood-opacity="0" result="BackgroundImageFix"/>
<feColorMatrix in="SourceAlpha" type="matrix" values="0 0 0 0 0 0 0 0 0 0 0 0 0 0 0 0 0 0 127 0" result="hardAlpha"/>
<feOffset dy="4"/>
<feGaussianBlur stdDeviation="2"/>
<feComposite in2="hardAlpha" operator="out"/>
<feColorMatrix type="matrix" values="0 0 0 0 0 0 0 0 0 0 0 0 0 0 0 0 0 0 0.25 0"/>
<feBlend mode="normal" in2="BackgroundImageFix" result="effect1_dropShadow_3_82"/>
<feBlend mode="normal" in="SourceGraphic" in2="effect1_dropShadow_3_82" result="shape"/>
</filter>
<filter id="filter30_d_3_82" x="5.91003" y="144.628" width="51.6561" height="36.4633" filterUnits="userSpaceOnUse" color-interpolation-filters="sRGB">
<feFlood flood-opacity="0" result="BackgroundImageFix"/>
<feColorMatrix in="SourceAlpha" type="matrix" values="0 0 0 0 0 0 0 0 0 0 0 0 0 0 0 0 0 0 127 0" result="hardAlpha"/>
<feOffset dy="4"/>
<feGaussianBlur stdDeviation="2"/>
<feComposite in2="hardAlpha" operator="out"/>
<feColorMatrix type="matrix" values="0 0 0 0 0 0 0 0 0 0 0 0 0 0 0 0 0 0 0.25 0"/>
<feBlend mode="normal" in2="BackgroundImageFix" result="effect1_dropShadow_3_82"/>
<feBlend mode="normal" in="SourceGraphic" in2="effect1_dropShadow_3_82" result="shape"/>
</filter>
<filter id="filter31_d_3_82" x="23.146" y="190.497" width="51.6561" height="36.4633" filterUnits="userSpaceOnUse" color-interpolation-filters="sRGB">
<feFlood flood-opacity="0" result="BackgroundImageFix"/>
<feColorMatrix in="SourceAlpha" type="matrix" values="0 0 0 0 0 0 0 0 0 0 0 0 0 0 0 0 0 0 127 0" result="hardAlpha"/>
<feOffset dy="4"/>
<feGaussianBlur stdDeviation="2"/>
<feComposite in2="hardAlpha" operator="out"/>
<feColorMatrix type="matrix" values="0 0 0 0 0 0 0 0 0 0 0 0 0 0 0 0 0 0 0.25 0"/>
<feBlend mode="normal" in2="BackgroundImageFix" result="effect1_dropShadow_3_82"/>
<feBlend mode="normal" in="SourceGraphic" in2="effect1_dropShadow_3_82" result="shape"/>
</filter>
<filter id="filter32_d_3_82" x="-0.971924" y="125.706" width="83.9438" height="126.763" filterUnits="userSpaceOnUse" color-interpolation-filters="sRGB">
<feFlood flood-opacity="0" result="BackgroundImageFix"/>
<feColorMatrix in="SourceAlpha" type="matrix" values="0 0 0 0 0 0 0 0 0 0 0 0 0 0 0 0 0 0 127 0" result="hardAlpha"/>
<feOffset dy="10"/>
<feGaussianBlur stdDeviation="2"/>
<feComposite in2="hardAlpha" operator="out"/>
<feColorMatrix type="matrix" values="0 0 0 0 0 0 0 0 0 0 0 0 0 0 0 0 0 0 0.25 0"/>
<feBlend mode="normal" in2="BackgroundImageFix" result="effect1_dropShadow_3_82"/>
<feBlend mode="normal" in="SourceGraphic" in2="effect1_dropShadow_3_82" result="shape"/>
</filter>
<clipPath id="clip0_3_82">
<rect width="737.666" height="594" fill="white" transform="translate(0 0.586365)"/>
</clipPath>
</defs>
</svg>
